<svg width="274" height="362" viewBox="0 0 274 362" fill="none" xmlns="http://www.w3.org/2000/svg">
<g clip-path="url(#clip0_266_46903)">
<rect x="0.960938" y="0.726562" width="273" height="63.5439" rx="8" fill="white"/>
<path d="M11.0274 17.4057V16.4672H17.5793V17.4057H14.8323V25.2031H13.7744V17.4057H11.0274ZM22.313 22.5243V18.6512H23.3197V25.2031H22.313V24.0941H22.2448C22.0912 24.4268 21.8523 24.7097 21.5281 24.9429C21.204 25.1733 20.7945 25.2884 20.2997 25.2884C19.8902 25.2884 19.5262 25.1989 19.2077 25.0197C18.8892 24.8377 18.6389 24.5647 18.4569 24.2007C18.2749 23.8339 18.1839 23.3718 18.1839 22.8144V18.6512H19.1906V22.7462C19.1906 23.2239 19.3243 23.605 19.5916 23.8893C19.8617 24.1737 20.2058 24.3159 20.6238 24.3159C20.8741 24.3159 21.1286 24.2519 21.3874 24.1239C21.649 23.996 21.868 23.7998 22.0443 23.5353C22.2234 23.2708 22.313 22.9338 22.313 22.5243ZM27.9105 25.3396C27.2792 25.3396 26.7346 25.2003 26.2768 24.9216C25.8218 24.6401 25.4706 24.2476 25.2232 23.7443C24.9786 23.2381 24.8564 22.6495 24.8564 21.9784C24.8564 21.3072 24.9786 20.7157 25.2232 20.2039C25.4706 19.6892 25.8147 19.2882 26.2555 19.001C26.6991 18.7109 27.2166 18.5659 27.8081 18.5659C28.1494 18.5659 28.4864 18.6228 28.8191 18.7365C29.1518 18.8503 29.4546 19.0351 29.7276 19.291C30.0006 19.5441 30.2182 19.8797 30.3803 20.2977C30.5424 20.7157 30.6234 21.2305 30.6234 21.8419V22.2684H25.573V21.3982H29.5997C29.5997 21.0286 29.5257 20.6987 29.3779 20.4086C29.2328 20.1186 29.0252 19.8896 28.7551 19.7219C28.4878 19.5541 28.1721 19.4702 27.8081 19.4702C27.4072 19.4702 27.0602 19.5697 26.7673 19.7688C26.4773 19.965 26.254 20.2209 26.0976 20.5366C25.9412 20.8522 25.863 21.1906 25.863 21.5518V22.1319C25.863 22.6267 25.9483 23.0462 26.119 23.3903C26.2924 23.7315 26.5327 23.9917 26.8398 24.1709C27.147 24.3472 27.5039 24.4353 27.9105 24.4353C28.175 24.4353 28.4138 24.3984 28.6271 24.3244C28.8432 24.2476 29.0295 24.1339 29.1859 23.9832C29.3423 23.8296 29.4632 23.6391 29.5485 23.4116L30.521 23.6846C30.4187 24.0145 30.2466 24.3045 30.0049 24.5548C29.7632 24.8022 29.4646 24.9955 29.1091 25.1349C28.7537 25.2714 28.3541 25.3396 27.9105 25.3396ZM36.7957 20.1186L35.8914 20.3745C35.8345 20.2238 35.7506 20.0773 35.6397 19.9351C35.5317 19.7901 35.3838 19.6707 35.1961 19.5768C35.0084 19.483 34.7681 19.4361 34.4752 19.4361C34.0742 19.4361 33.7401 19.5285 33.4728 19.7133C33.2083 19.8953 33.0761 20.1271 33.0761 20.4086C33.0761 20.6589 33.1671 20.8565 33.3491 21.0015C33.5311 21.1466 33.8155 21.2674 34.2022 21.3641L35.1748 21.603C35.7606 21.7452 36.1971 21.9627 36.4843 22.2556C36.7715 22.5457 36.9151 22.9196 36.9151 23.3775C36.9151 23.7528 36.8071 24.0884 36.5909 24.3841C36.3777 24.6799 36.0791 24.9131 35.6952 25.0837C35.3113 25.2543 34.8648 25.3396 34.3558 25.3396C33.6875 25.3396 33.1344 25.1946 32.6965 24.9045C32.2585 24.6145 31.9813 24.1908 31.8647 23.6334L32.8202 23.3945C32.9112 23.7471 33.0832 24.0116 33.3363 24.1879C33.5922 24.3642 33.9264 24.4524 34.3387 24.4524C34.8079 24.4524 35.1805 24.3529 35.4563 24.1538C35.735 23.9519 35.8743 23.7102 35.8743 23.4286C35.8743 23.2012 35.7947 23.0106 35.6354 22.8571C35.4762 22.7007 35.2316 22.5841 34.9018 22.5073L33.8098 22.2514C33.2098 22.1092 32.769 21.8888 32.4875 21.5902C32.2088 21.2888 32.0694 20.912 32.0694 20.4598C32.0694 20.0901 32.1732 19.7631 32.3808 19.4787C32.5913 19.1944 32.877 18.9711 33.2382 18.809C33.6022 18.6469 34.0145 18.5659 34.4752 18.5659C35.1236 18.5659 35.6326 18.7081 36.0023 18.9925C36.3748 19.2768 36.6393 19.6522 36.7957 20.1186ZM40.9045 25.3396C40.3585 25.3396 39.8765 25.2017 39.4585 24.9259C39.0404 24.6472 38.7134 24.2547 38.4774 23.7486C38.2414 23.2395 38.1233 22.6381 38.1233 21.9442C38.1233 21.2561 38.2414 20.6589 38.4774 20.1527C38.7134 19.6465 39.0419 19.2555 39.4627 18.9797C39.8836 18.7038 40.3699 18.5659 40.9216 18.5659C41.3481 18.5659 41.6851 18.637 41.9325 18.7792C42.1827 18.9185 42.3733 19.0778 42.5041 19.2569C42.6377 19.4332 42.7415 19.5783 42.8155 19.692H42.9008V16.4672H43.9075V25.2031H42.9349V24.1965H42.8155C42.7415 24.3159 42.6363 24.4666 42.4998 24.6486C42.3633 24.8278 42.1685 24.9884 41.9154 25.1306C41.6623 25.27 41.3254 25.3396 40.9045 25.3396ZM41.041 24.4353C41.4448 24.4353 41.786 24.3301 42.0647 24.1197C42.3434 23.9064 42.5553 23.6121 42.7003 23.2367C42.8453 22.8585 42.9178 22.422 42.9178 21.9272C42.9178 21.438 42.8467 21.0101 42.7046 20.6432C42.5624 20.2735 42.3519 19.9863 42.0733 19.7816C41.7946 19.574 41.4505 19.4702 41.041 19.4702C40.6144 19.4702 40.259 19.5797 39.9746 19.7986C39.6931 20.0148 39.4812 20.3091 39.339 20.6816C39.1997 21.0513 39.13 21.4665 39.13 21.9272C39.13 22.3935 39.2011 22.8173 39.3433 23.1983C39.4883 23.5765 39.7016 23.878 39.9831 24.1026C40.2675 24.3244 40.6201 24.4353 41.041 24.4353ZM47.819 25.3567C47.4038 25.3567 47.027 25.2785 46.6886 25.1221C46.3502 24.9628 46.0815 24.7339 45.8824 24.4353C45.6833 24.1339 45.5838 23.7699 45.5838 23.3433C45.5838 22.968 45.6578 22.6637 45.8056 22.4305C45.9535 22.1945 46.1511 22.0096 46.3985 21.876C46.6459 21.7423 46.9189 21.6428 47.2175 21.5774C47.519 21.5091 47.8218 21.4551 48.1261 21.4153C48.5242 21.3641 48.847 21.3257 49.0944 21.3001C49.3446 21.2717 49.5266 21.2248 49.6404 21.1594C49.757 21.094 49.8153 20.9802 49.8153 20.8181V20.784C49.8153 20.3631 49.7001 20.0361 49.4698 19.8029C49.2423 19.5697 48.8967 19.4531 48.4332 19.4531C47.9526 19.4531 47.5758 19.5584 47.3028 19.7688C47.0298 19.9792 46.8379 20.2039 46.727 20.4428L45.7715 20.1015C45.9421 19.7034 46.1696 19.3934 46.454 19.1716C46.7412 18.947 47.054 18.7906 47.3924 18.7024C47.7337 18.6114 48.0692 18.5659 48.3991 18.5659C48.6095 18.5659 48.8512 18.5915 49.1242 18.6427C49.4001 18.691 49.666 18.792 49.9219 18.9455C50.1807 19.0991 50.3954 19.3309 50.566 19.6408C50.7366 19.9508 50.8219 20.366 50.8219 20.8864V25.2031H49.8153V24.3159H49.7641C49.6958 24.4581 49.5821 24.6102 49.4228 24.7723C49.2636 24.9344 49.0517 25.0723 48.7873 25.1861C48.5228 25.2998 48.2 25.3567 47.819 25.3567ZM47.9725 24.4524C48.3707 24.4524 48.7062 24.3742 48.9792 24.2178C49.2551 24.0614 49.4626 23.8595 49.602 23.6121C49.7442 23.3647 49.8153 23.1045 49.8153 22.8315V21.9101C49.7726 21.9613 49.6788 22.0082 49.5337 22.0509C49.3916 22.0907 49.2266 22.1262 49.0389 22.1575C48.8541 22.1859 48.6735 22.2115 48.4972 22.2343C48.3237 22.2542 48.183 22.2713 48.0749 22.2855C47.8133 22.3196 47.5687 22.3751 47.3412 22.4518C47.1166 22.5258 46.9346 22.6381 46.7952 22.7888C46.6587 22.9367 46.5905 23.1386 46.5905 23.3945C46.5905 23.7443 46.7199 24.0088 46.9787 24.1879C47.2403 24.3642 47.5716 24.4524 47.9725 24.4524ZM53.0731 27.6601C52.9025 27.6601 52.7503 27.6459 52.6167 27.6174C52.483 27.5918 52.3906 27.5662 52.3394 27.5407L52.5953 26.6534C52.8399 26.716 53.056 26.7387 53.2437 26.7217C53.4314 26.7046 53.5978 26.6207 53.7428 26.47C53.8907 26.3221 54.0257 26.0818 54.148 25.7491L54.3357 25.2372L51.9129 18.6512H53.0048L54.8134 23.8723H54.8817L56.6903 18.6512H57.7823L55.0011 26.1586C54.876 26.497 54.721 26.7771 54.5362 26.9989C54.3513 27.2236 54.1366 27.3899 53.8921 27.498C53.6504 27.6061 53.3774 27.6601 53.0731 27.6601ZM64.4174 25.3567C64.0022 25.3567 63.6254 25.2785 63.287 25.1221C62.9486 24.9628 62.6799 24.7339 62.4808 24.4353C62.2817 24.1339 62.1822 23.7699 62.1822 23.3433C62.1822 22.968 62.2561 22.6637 62.404 22.4305C62.5519 22.1945 62.7495 22.0096 62.9969 21.876C63.2443 21.7423 63.5173 21.6428 63.8159 21.5774C64.1174 21.5091 64.4202 21.4551 64.7245 21.4153C65.1226 21.3641 65.4454 21.3257 65.6928 21.3001C65.943 21.2717 66.125 21.2248 66.2388 21.1594C66.3554 21.094 66.4137 20.9802 66.4137 20.8181V20.784C66.4137 20.3631 66.2985 20.0361 66.0681 19.8029C65.8406 19.5697 65.4951 19.4531 65.0316 19.4531C64.551 19.4531 64.1742 19.5584 63.9012 19.7688C63.6282 19.9792 63.4363 20.2039 63.3254 20.4428L62.3699 20.1015C62.5405 19.7034 62.768 19.3934 63.0524 19.1716C63.3396 18.947 63.6524 18.7906 63.9908 18.7024C64.3321 18.6114 64.6676 18.5659 64.9975 18.5659C65.2079 18.5659 65.4496 18.5915 65.7226 18.6427C65.9985 18.691 66.2644 18.792 66.5203 18.9455C66.7791 19.0991 66.9938 19.3309 67.1644 19.6408C67.335 19.9508 67.4203 20.366 67.4203 20.8864V25.2031H66.4137V24.3159H66.3625C66.2942 24.4581 66.1805 24.6102 66.0212 24.7723C65.862 24.9344 65.6501 25.0723 65.3857 25.1861C65.1212 25.2998 64.7984 25.3567 64.4174 25.3567ZM64.5709 24.4524C64.9691 24.4524 65.3046 24.3742 65.5776 24.2178C65.8534 24.0614 66.061 23.8595 66.2004 23.6121C66.3426 23.3647 66.4137 23.1045 66.4137 22.8315V21.9101C66.371 21.9613 66.2772 22.0082 66.1321 22.0509C65.9899 22.0907 65.825 22.1262 65.6373 22.1575C65.4525 22.1859 65.2719 22.2115 65.0956 22.2343C64.9221 22.2542 64.7814 22.2713 64.6733 22.2855C64.4117 22.3196 64.1671 22.3751 63.9396 22.4518C63.715 22.5258 63.533 22.6381 63.3936 22.7888C63.2571 22.9367 63.1889 23.1386 63.1889 23.3945C63.1889 23.7443 63.3183 24.0088 63.5771 24.1879C63.8387 24.3642 64.17 24.4524 64.5709 24.4524ZM72.1071 18.6512V19.5043H68.7117V18.6512H72.1071ZM69.7013 17.0815H70.708V23.3263C70.708 23.6106 70.7493 23.8239 70.8317 23.9661C70.917 24.1055 71.0251 24.1993 71.1559 24.2476C71.2896 24.2931 71.4303 24.3159 71.5782 24.3159C71.6891 24.3159 71.7801 24.3102 71.8512 24.2988C71.9223 24.2846 71.9792 24.2732 72.0218 24.2647L72.2266 25.169C72.1583 25.1946 72.063 25.2202 71.9408 25.2458C71.8185 25.2742 71.6635 25.2884 71.4758 25.2884C71.1914 25.2884 70.9128 25.2273 70.6398 25.105C70.3696 24.9827 70.145 24.7965 69.9658 24.5462C69.7895 24.296 69.7013 23.9803 69.7013 23.5993V17.0815ZM80.0539 16.4672V25.2031H78.996V17.5763H78.9448L76.812 18.9925V17.9175L78.996 16.4672H80.0539ZM82.5663 25.2031V24.4353L85.4498 21.2788C85.7882 20.9091 86.0669 20.5878 86.2859 20.3148C86.5048 20.0389 86.6669 19.7802 86.7721 19.5384C86.8802 19.2939 86.9342 19.038 86.9342 18.7706C86.9342 18.4635 86.8603 18.1976 86.7124 17.973C86.5674 17.7483 86.3683 17.5749 86.1152 17.4526C85.8622 17.3303 85.5778 17.2692 85.2621 17.2692C84.9266 17.2692 84.6337 17.3388 84.3834 17.4782C84.136 17.6147 83.9441 17.8066 83.8076 18.054C83.6739 18.3014 83.6071 18.5915 83.6071 18.9242H82.6004C82.6004 18.4123 82.7184 17.963 82.9545 17.5763C83.1905 17.1895 83.5118 16.8881 83.9185 16.672C84.328 16.4559 84.7872 16.3478 85.2963 16.3478C85.8081 16.3478 86.2617 16.4559 86.657 16.672C87.0523 16.8881 87.3622 17.1796 87.5869 17.5464C87.8115 17.9133 87.9238 18.3213 87.9238 18.7706C87.9238 19.092 87.8656 19.4062 87.749 19.7133C87.6352 20.0176 87.4362 20.3574 87.1518 20.7328C86.8703 21.1053 86.4792 21.5603 85.9788 22.0978L84.0166 24.1965V24.2647H88.0774V25.2031H82.5663ZM90.5898 24.0855C90.3794 24.0855 90.1988 24.0102 90.0481 23.8595C89.8974 23.7088 89.822 23.5282 89.822 23.3177C89.822 23.1073 89.8974 22.9267 90.0481 22.776C90.1988 22.6253 90.3794 22.5499 90.5898 22.5499C90.8003 22.5499 90.9808 22.6253 91.1316 22.776C91.2823 22.9267 91.3576 23.1073 91.3576 23.3177C91.3576 23.4571 91.3221 23.5851 91.251 23.7016C91.1827 23.8182 91.0903 23.9121 90.9737 23.9832C90.86 24.0514 90.732 24.0855 90.5898 24.0855ZM90.5898 19.6664C90.3794 19.6664 90.1988 19.5911 90.0481 19.4403C89.8974 19.2896 89.822 19.109 89.822 18.8986C89.822 18.6882 89.8974 18.5076 90.0481 18.3569C90.1988 18.2062 90.3794 18.1308 90.5898 18.1308C90.8003 18.1308 90.9808 18.2062 91.1316 18.3569C91.2823 18.5076 91.3576 18.6882 91.3576 18.8986C91.3576 19.038 91.3221 19.1659 91.251 19.2825C91.1827 19.3991 91.0903 19.493 90.9737 19.564C90.86 19.6323 90.732 19.6664 90.5898 19.6664ZM93.147 25.2031V24.4353L96.0306 21.2788C96.369 20.9091 96.6476 20.5878 96.8666 20.3148C97.0856 20.0389 97.2477 19.7802 97.3529 19.5384C97.4609 19.2939 97.515 19.038 97.515 18.7706C97.515 18.4635 97.441 18.1976 97.2932 17.973C97.1481 17.7483 96.9491 17.5749 96.696 17.4526C96.4429 17.3303 96.1585 17.2692 95.8429 17.2692C95.5073 17.2692 95.2144 17.3388 94.9642 17.4782C94.7168 17.6147 94.5248 17.8066 94.3883 18.054C94.2547 18.3014 94.1878 18.5915 94.1878 18.9242H93.1812C93.1812 18.4123 93.2992 17.963 93.5352 17.5763C93.7712 17.1895 94.0926 16.8881 94.4992 16.672C94.9087 16.4559 95.368 16.3478 95.877 16.3478C96.3889 16.3478 96.8424 16.4559 97.2377 16.672C97.633 16.8881 97.943 17.1796 98.1676 17.5464C98.3923 17.9133 98.5046 18.3213 98.5046 18.7706C98.5046 19.092 98.4463 19.4062 98.3297 19.7133C98.216 20.0176 98.0169 20.3574 97.7325 20.7328C97.451 21.1053 97.06 21.5603 96.5595 22.0978L94.5973 24.1965V24.2647H98.6582V25.2031H93.147ZM100.027 23.4116V22.5414L103.866 16.4672H104.498V17.8152H104.071L101.171 22.4049V22.4732H106.34V23.4116H100.027ZM104.139 25.2031V23.1471V22.7419V16.4672H105.146V25.2031H104.139Z" fill="#221F1F"/>
<path d="M212.79 21.5585C212.79 19.417 213.366 17.7696 215.467 17.7696C217.567 17.7696 218.144 19.417 218.144 21.5585C218.144 23.7412 217.567 25.3886 215.467 25.3886C213.366 25.3886 212.79 23.7412 212.79 21.5585ZM216.991 21.5585C216.991 20.1583 216.836 18.8404 215.467 18.8404C214.097 18.8404 213.943 20.1583 213.943 21.5585C213.943 23.0308 214.097 24.3178 215.467 24.3178C216.836 24.3178 216.991 23.0308 216.991 21.5585ZM221.047 25.4092V18.9743H220.089V17.9035H222.231V25.4092H221.047ZM226.07 24.7297C226.07 25.1518 225.741 25.4813 225.329 25.4813C224.907 25.4813 224.578 25.1518 224.578 24.7297C224.578 24.3075 224.907 23.9781 225.329 23.9781C225.741 23.9781 226.07 24.3075 226.07 24.7297ZM226.07 20.4054C226.07 20.8275 225.741 21.157 225.329 21.157C224.907 21.157 224.578 20.8275 224.578 20.4054C224.578 19.9833 224.907 19.6538 225.329 19.6538C225.741 19.6538 226.07 19.9833 226.07 20.4054ZM227.99 25.3062V24.4517C229.761 22.897 231.625 21.5379 231.625 20.0656C231.625 19.2831 231.285 18.7478 230.41 18.7478C229.586 18.7478 229.143 19.3243 229.112 20.1686H227.98C228.021 18.5418 229.071 17.7491 230.399 17.7491C231.923 17.7491 232.788 18.6654 232.788 20.0141C232.788 21.8365 230.935 23.2265 229.73 24.3281H232.994V25.3062H227.99ZM238.466 25.4092V23.8442H234.739V22.9588L238.198 17.9962H239.619V22.8249H240.577V23.8442H239.619V25.4092H238.466ZM236.088 22.8249H238.517V19.1905L236.088 22.8249Z" fill="#221F1F"/>
<circle cx="256.949" cy="21.3064" r="8.57989" fill="#EBEBEB" stroke="#EBEBEB" stroke-width="1.71598" stroke-linecap="round" stroke-linejoin="round"/>
<path fill-rule="evenodd" clip-rule="evenodd" d="M255.232 17.874L260.38 21.306L255.232 24.7379V17.874Z" fill="#808C9C" stroke="#808C9C" stroke-width="1.71598" stroke-linecap="round" stroke-linejoin="round"/>
<rect x="10.4473" y="45.8867" width="255.081" height="3.43195" rx="1.71598" fill="#EBEBEB"/>
<rect x="10.4473" y="45.8867" width="64.1265" height="3.43195" rx="1.71598" fill="#C4C4C4"/>
<rect x="85.2637" y="45.8867" width="74.8143" height="3.43195" rx="1.71598" fill="#C4C4C4"/>
<rect x="170.762" y="45.8867" width="54.1513" height="3.43195" rx="1.71598" fill="#C4C4C4"/>
<rect x="235.604" y="45.8867" width="14.2503" height="3.43195" rx="1.71598" fill="#C4C4C4"/>
<rect x="0.960938" y="70.2705" width="269.771" height="63.5439" rx="8" fill="white"/>
<path d="M11.3262 86.9623V86.0239H17.8781V86.9623H15.1311V94.7598H14.0732V86.9623H11.3262ZM22.6118 92.081V88.2079H23.6185V94.7598H22.6118V93.6507H22.5436C22.39 93.9834 22.1512 94.2664 21.827 94.4996C21.5028 94.7299 21.0933 94.8451 20.5985 94.8451C20.189 94.8451 19.825 94.7555 19.5065 94.5763C19.188 94.3943 18.9378 94.1214 18.7558 93.7574C18.5738 93.3905 18.4828 92.9284 18.4828 92.371V88.2079H19.4894V92.3028C19.4894 92.7805 19.6231 93.1616 19.8904 93.446C20.1606 93.7303 20.5046 93.8725 20.9227 93.8725C21.1729 93.8725 21.4274 93.8085 21.6862 93.6806C21.9478 93.5526 22.1668 93.3564 22.3431 93.0919C22.5223 92.8275 22.6118 92.4905 22.6118 92.081ZM28.2093 94.8963C27.578 94.8963 27.0335 94.7569 26.5756 94.4782C26.1206 94.1967 25.7694 93.8043 25.522 93.3009C25.2775 92.7948 25.1552 92.2061 25.1552 91.535C25.1552 90.8639 25.2775 90.2724 25.522 89.7605C25.7694 89.2458 26.1135 88.8448 26.5543 88.5576C26.9979 88.2676 27.5155 88.1225 28.107 88.1225C28.4482 88.1225 28.7852 88.1794 29.1179 88.2932C29.4506 88.4069 29.7535 88.5918 30.0265 88.8477C30.2995 89.1008 30.517 89.4363 30.6791 89.8544C30.8412 90.2724 30.9222 90.7871 30.9222 91.3985V91.8251H25.8718V90.9549H29.8985C29.8985 90.5852 29.8246 90.2553 29.6767 89.9653C29.5317 89.6752 29.3241 89.4463 29.0539 89.2785C28.7866 89.1107 28.471 89.0268 28.107 89.0268C27.706 89.0268 27.3591 89.1264 27.0662 89.3254C26.7761 89.5216 26.5529 89.7776 26.3965 90.0932C26.2401 90.4089 26.1619 90.7473 26.1619 91.1084V91.6886C26.1619 92.1834 26.2472 92.6028 26.4178 92.9469C26.5913 93.2881 26.8316 93.5483 27.1387 93.7275C27.4458 93.9038 27.8027 93.992 28.2093 93.992C28.4738 93.992 28.7127 93.955 28.9259 93.8811C29.1421 93.8043 29.3283 93.6905 29.4847 93.5398C29.6411 93.3863 29.762 93.1957 29.8473 92.9682L30.8199 93.2412C30.7175 93.5711 30.5454 93.8612 30.3037 94.1114C30.062 94.3588 29.7634 94.5522 29.408 94.6915C29.0525 94.828 28.653 94.8963 28.2093 94.8963ZM37.0945 89.6752L36.1902 89.9311C36.1333 89.7804 36.0494 89.634 35.9385 89.4918C35.8305 89.3468 35.6826 89.2273 35.4949 89.1335C35.3072 89.0396 35.0669 88.9927 34.774 88.9927C34.3731 88.9927 34.0389 89.0851 33.7716 89.27C33.5072 89.452 33.3749 89.6837 33.3749 89.9653C33.3749 90.2155 33.4659 90.4132 33.6479 90.5582C33.8299 90.7032 34.1143 90.8241 34.501 90.9208L35.4736 91.1596C36.0594 91.3018 36.4959 91.5194 36.7831 91.8123C37.0703 92.1023 37.2139 92.4763 37.2139 92.9341C37.2139 93.3095 37.1059 93.645 36.8898 93.9408C36.6765 94.2365 36.3779 94.4697 35.994 94.6403C35.6101 94.811 35.1636 94.8963 34.6546 94.8963C33.9863 94.8963 33.4332 94.7512 32.9953 94.4612C32.5574 94.1711 32.2801 93.7474 32.1635 93.19L33.119 92.9512C33.21 93.3038 33.382 93.5683 33.6351 93.7446C33.8911 93.9209 34.2252 94.009 34.6375 94.009C35.1068 94.009 35.4793 93.9095 35.7551 93.7104C36.0338 93.5085 36.1731 93.2668 36.1731 92.9853C36.1731 92.7578 36.0935 92.5673 35.9343 92.4137C35.775 92.2573 35.5305 92.1407 35.2006 92.0639L34.1086 91.808C33.5086 91.6658 33.0678 91.4454 32.7863 91.1468C32.5076 90.8454 32.3683 90.4686 32.3683 90.0165C32.3683 89.6468 32.4721 89.3197 32.6796 89.0354C32.8901 88.751 33.1759 88.5278 33.537 88.3657C33.901 88.2036 34.3134 88.1225 34.774 88.1225C35.4224 88.1225 35.9314 88.2647 36.3011 88.5491C36.6736 88.8335 36.9381 89.2088 37.0945 89.6752ZM41.2033 94.8963C40.6573 94.8963 40.1753 94.7583 39.7573 94.4825C39.3393 94.2038 39.0122 93.8114 38.7762 93.3052C38.5402 92.7962 38.4222 92.1947 38.4222 91.5009C38.4222 90.8127 38.5402 90.2155 38.7762 89.7093C39.0122 89.2032 39.3407 88.8121 39.7616 88.5363C40.1824 88.2605 40.6687 88.1225 41.2204 88.1225C41.6469 88.1225 41.9839 88.1936 42.2313 88.3358C42.4816 88.4752 42.6721 88.6344 42.8029 88.8136C42.9366 88.9899 43.0404 89.1349 43.1143 89.2487H43.1996V86.0239H44.2063V94.7598H43.2337V93.7531H43.1143C43.0404 93.8725 42.9351 94.0232 42.7986 94.2052C42.6621 94.3844 42.4673 94.5451 42.2143 94.6873C41.9612 94.8266 41.6242 94.8963 41.2033 94.8963ZM41.3398 93.992C41.7436 93.992 42.0849 93.8867 42.3636 93.6763C42.6422 93.463 42.8541 93.1687 42.9991 92.7933C43.1442 92.4151 43.2167 91.9786 43.2167 91.4838C43.2167 90.9947 43.1456 90.5667 43.0034 90.1999C42.8612 89.8302 42.6508 89.543 42.3721 89.3382C42.0934 89.1306 41.7493 89.0268 41.3398 89.0268C40.9133 89.0268 40.5578 89.1363 40.2734 89.3553C39.9919 89.5714 39.78 89.8657 39.6379 90.2383C39.4985 90.6079 39.4288 91.0231 39.4288 91.4838C39.4288 91.9502 39.4999 92.3739 39.6421 92.7549C39.7872 93.1332 40.0004 93.4346 40.282 93.6592C40.5663 93.8811 40.9189 93.992 41.3398 93.992ZM48.1178 94.9133C47.7026 94.9133 47.3258 94.8351 46.9874 94.6787C46.649 94.5195 46.3803 94.2906 46.1812 93.992C45.9822 93.6905 45.8826 93.3265 45.8826 92.9C45.8826 92.5246 45.9566 92.2203 46.1045 91.9871C46.2523 91.7511 46.45 91.5663 46.6974 91.4326C46.9448 91.299 47.2178 91.1994 47.5164 91.134C47.8178 91.0658 48.1206 91.0118 48.4249 90.9719C48.823 90.9208 49.1458 90.8824 49.3932 90.8568C49.6435 90.8283 49.8255 90.7814 49.9392 90.716C50.0558 90.6506 50.1141 90.5369 50.1141 90.3748V90.3406C50.1141 89.9198 49.9989 89.5927 49.7686 89.3596C49.5411 89.1264 49.1956 89.0098 48.732 89.0098C48.2515 89.0098 47.8747 89.115 47.6017 89.3254C47.3287 89.5359 47.1367 89.7605 47.0258 89.9994L46.0703 89.6581C46.241 89.26 46.4685 88.9501 46.7528 88.7283C47.04 88.5036 47.3528 88.3472 47.6912 88.259C48.0325 88.168 48.3681 88.1225 48.6979 88.1225C48.9084 88.1225 49.1501 88.1481 49.4231 88.1993C49.6989 88.2477 49.9648 88.3486 50.2207 88.5022C50.4795 88.6557 50.6942 88.8875 50.8648 89.1975C51.0355 89.5074 51.1208 89.9226 51.1208 90.443V94.7598H50.1141V93.8725H50.0629C49.9947 94.0147 49.8809 94.1669 49.7217 94.3289C49.5624 94.491 49.3506 94.629 49.0861 94.7427C48.8216 94.8565 48.4989 94.9133 48.1178 94.9133ZM48.2714 94.009C48.6695 94.009 49.005 93.9308 49.278 93.7744C49.5539 93.618 49.7615 93.4161 49.9008 93.1687C50.043 92.9213 50.1141 92.6611 50.1141 92.3881V91.4667C50.0714 91.5179 49.9776 91.5649 49.8326 91.6075C49.6904 91.6473 49.5254 91.6829 49.3378 91.7141C49.1529 91.7426 48.9723 91.7682 48.796 91.7909C48.6226 91.8108 48.4818 91.8279 48.3737 91.8421C48.1121 91.8762 47.8676 91.9317 47.6401 92.0085C47.4154 92.0824 47.2334 92.1947 47.0941 92.3455C46.9576 92.4933 46.8893 92.6952 46.8893 92.9512C46.8893 93.3009 47.0187 93.5654 47.2775 93.7446C47.5391 93.9209 47.8704 94.009 48.2714 94.009ZM53.3719 97.2167C53.2013 97.2167 53.0492 97.2025 52.9155 97.1741C52.7818 97.1485 52.6894 97.1229 52.6382 97.0973L52.8942 96.2101C53.1387 96.2726 53.3549 96.2954 53.5425 96.2783C53.7302 96.2612 53.8966 96.1774 54.0416 96.0266C54.1895 95.8788 54.3246 95.6385 54.4468 95.3058L54.6345 94.7939L52.2117 88.2079H53.3037L55.1123 93.4289H55.1805L56.9891 88.2079H58.0811L55.3 95.7153C55.1748 96.0537 55.0198 96.3338 54.835 96.5556C54.6502 96.7802 54.4355 96.9466 54.1909 97.0546C53.9492 97.1627 53.6762 97.2167 53.3719 97.2167ZM64.7162 94.9133C64.301 94.9133 63.9242 94.8351 63.5858 94.6787C63.2474 94.5195 62.9787 94.2906 62.7796 93.992C62.5806 93.6905 62.481 93.3265 62.481 92.9C62.481 92.5246 62.555 92.2203 62.7028 91.9871C62.8507 91.7511 63.0484 91.5663 63.2958 91.4326C63.5432 91.299 63.8162 91.1994 64.1148 91.134C64.4162 91.0658 64.719 91.0118 65.0233 90.9719C65.4214 90.9208 65.7442 90.8824 65.9916 90.8568C66.2419 90.8283 66.4238 90.7814 66.5376 90.716C66.6542 90.6506 66.7125 90.5369 66.7125 90.3748V90.3406C66.7125 89.9198 66.5973 89.5927 66.367 89.3596C66.1395 89.1264 65.794 89.0098 65.3304 89.0098C64.8499 89.0098 64.4731 89.115 64.2001 89.3254C63.9271 89.5359 63.7351 89.7605 63.6242 89.9994L62.6687 89.6581C62.8393 89.26 63.0668 88.9501 63.3512 88.7283C63.6384 88.5036 63.9512 88.3472 64.2896 88.259C64.6309 88.168 64.9664 88.1225 65.2963 88.1225C65.5068 88.1225 65.7485 88.1481 66.0215 88.1993C66.2973 88.2477 66.5632 88.3486 66.8191 88.5022C67.0779 88.6557 67.2926 88.8875 67.4632 89.1975C67.6338 89.5074 67.7192 89.9226 67.7192 90.443V94.7598H66.7125V93.8725H66.6613C66.593 94.0147 66.4793 94.1669 66.3201 94.3289C66.1608 94.491 65.9489 94.629 65.6845 94.7427C65.42 94.8565 65.0973 94.9133 64.7162 94.9133ZM64.8698 94.009C65.2679 94.009 65.6034 93.9308 65.8764 93.7744C66.1523 93.618 66.3599 93.4161 66.4992 93.1687C66.6414 92.9213 66.7125 92.6611 66.7125 92.3881V91.4667C66.6698 91.5179 66.576 91.5649 66.431 91.6075C66.2888 91.6473 66.1238 91.6829 65.9362 91.7141C65.7513 91.7426 65.5707 91.7682 65.3944 91.7909C65.221 91.8108 65.0802 91.8279 64.9721 91.8421C64.7105 91.8762 64.466 91.9317 64.2385 92.0085C64.0138 92.0824 63.8318 92.1947 63.6925 92.3455C63.556 92.4933 63.4877 92.6952 63.4877 92.9512C63.4877 93.3009 63.6171 93.5654 63.8759 93.7446C64.1375 93.9209 64.4688 94.009 64.8698 94.009ZM72.406 88.2079V89.061H69.0106V88.2079H72.406ZM70.0002 86.6381H71.0068V92.8829C71.0068 93.1673 71.0481 93.3806 71.1305 93.5228C71.2159 93.6621 71.3239 93.7559 71.4547 93.8043C71.5884 93.8498 71.7291 93.8725 71.877 93.8725C71.9879 93.8725 72.0789 93.8668 72.15 93.8555C72.2211 93.8412 72.278 93.8299 72.3206 93.8213L72.5254 94.7256C72.4571 94.7512 72.3619 94.7768 72.2396 94.8024C72.1173 94.8309 71.9623 94.8451 71.7746 94.8451C71.4903 94.8451 71.2116 94.7839 70.9386 94.6617C70.6684 94.5394 70.4438 94.3531 70.2646 94.1029C70.0883 93.8526 70.0002 93.537 70.0002 93.1559V86.6381ZM80.3527 86.0239V94.7598H79.2948V87.1329H79.2437L77.1109 88.5491V87.4742L79.2948 86.0239H80.3527ZM82.8651 94.7598V93.992L85.7486 90.8354C86.087 90.4658 86.3657 90.1444 86.5847 89.8714C86.8037 89.5956 86.9658 89.3368 87.071 89.0951C87.179 88.8505 87.2331 88.5946 87.2331 88.3273C87.2331 88.0202 87.1591 87.7543 87.0113 87.5296C86.8662 87.305 86.6672 87.1315 86.4141 87.0092C86.161 86.8869 85.8766 86.8258 85.561 86.8258C85.2254 86.8258 84.9325 86.8955 84.6823 87.0348C84.4349 87.1713 84.2429 87.3633 84.1064 87.6107C83.9727 87.8581 83.9059 88.1481 83.9059 88.4808H82.8992C82.8992 87.969 83.0173 87.5197 83.2533 87.1329C83.4893 86.7462 83.8107 86.4448 84.2173 86.2286C84.6268 86.0125 85.0861 85.9044 85.5951 85.9044C86.107 85.9044 86.5605 86.0125 86.9558 86.2286C87.3511 86.4448 87.661 86.7362 87.8857 87.1031C88.1104 87.4699 88.2227 87.878 88.2227 88.3273C88.2227 88.6486 88.1644 88.9629 88.0478 89.27C87.934 89.5743 87.735 89.9141 87.4506 90.2894C87.1691 90.662 86.7781 91.117 86.2776 91.6544L84.3154 93.7531V93.8213H88.3762V94.7598H82.8651ZM90.8887 93.6422C90.6782 93.6422 90.4976 93.5668 90.3469 93.4161C90.1962 93.2654 90.1209 93.0848 90.1209 92.8744C90.1209 92.6639 90.1962 92.4834 90.3469 92.3327C90.4976 92.1819 90.6782 92.1066 90.8887 92.1066C91.0991 92.1066 91.2797 92.1819 91.4304 92.3327C91.5811 92.4834 91.6565 92.6639 91.6565 92.8744C91.6565 93.0137 91.6209 93.1417 91.5498 93.2583C91.4816 93.3749 91.3892 93.4687 91.2726 93.5398C91.1588 93.6081 91.0308 93.6422 90.8887 93.6422ZM90.8887 89.2231C90.6782 89.2231 90.4976 89.1477 90.3469 88.997C90.1962 88.8463 90.1209 88.6657 90.1209 88.4553C90.1209 88.2448 90.1962 88.0642 90.3469 87.9135C90.4976 87.7628 90.6782 87.6875 90.8887 87.6875C91.0991 87.6875 91.2797 87.7628 91.4304 87.9135C91.5811 88.0642 91.6565 88.2448 91.6565 88.4553C91.6565 88.5946 91.6209 88.7226 91.5498 88.8392C91.4816 88.9557 91.3892 89.0496 91.2726 89.1207C91.1588 89.1889 91.0308 89.2231 90.8887 89.2231ZM93.4459 94.7598V93.992L96.3294 90.8354C96.6678 90.4658 96.9465 90.1444 97.1654 89.8714C97.3844 89.5956 97.5465 89.3368 97.6517 89.0951C97.7598 88.8505 97.8138 88.5946 97.8138 88.3273C97.8138 88.0202 97.7399 87.7543 97.592 87.5296C97.447 87.305 97.2479 87.1315 96.9948 87.0092C96.7417 86.8869 96.4574 86.8258 96.1417 86.8258C95.8061 86.8258 95.5132 86.8955 95.263 87.0348C95.0156 87.1713 94.8236 87.3633 94.6871 87.6107C94.5535 87.8581 94.4867 88.1481 94.4867 88.4808H93.48C93.48 87.969 93.598 87.5197 93.834 87.1329C94.0701 86.7462 94.3914 86.4448 94.7981 86.2286C95.2075 86.0125 95.6668 85.9044 96.1758 85.9044C96.6877 85.9044 97.1413 86.0125 97.5365 86.2286C97.9318 86.4448 98.2418 86.7362 98.4664 87.1031C98.6911 87.4699 98.8034 87.878 98.8034 88.3273C98.8034 88.6486 98.7451 88.9629 98.6285 89.27C98.5148 89.5743 98.3157 89.9141 98.0314 90.2894C97.7498 90.662 97.3588 91.117 96.8583 91.6544L94.8962 93.7531V93.8213H98.957V94.7598H93.4459ZM100.326 92.9682V92.0981L104.165 86.0239H104.797V87.3718H104.37L101.469 91.9616V92.0298H106.639V92.9682H100.326ZM104.438 94.7598V92.7038V92.2985V86.0239H105.445V94.7598H104.438Z" fill="#221F1F"/>
<path d="M213.089 91.1152C213.089 88.9736 213.665 87.3263 215.766 87.3263C217.866 87.3263 218.443 88.9736 218.443 91.1152C218.443 93.2979 217.866 94.9452 215.766 94.9452C213.665 94.9452 213.089 93.2979 213.089 91.1152ZM217.289 91.1152C217.289 89.7149 217.135 88.3971 215.766 88.3971C214.396 88.3971 214.242 89.7149 214.242 91.1152C214.242 92.5875 214.396 93.8745 215.766 93.8745C217.135 93.8745 217.289 92.5875 217.289 91.1152ZM221.346 94.9658V88.5309H220.388V87.4601H222.53V94.9658H221.346ZM226.369 94.2863C226.369 94.7084 226.04 95.0379 225.628 95.0379C225.206 95.0379 224.876 94.7084 224.876 94.2863C224.876 93.8642 225.206 93.5347 225.628 93.5347C226.04 93.5347 226.369 93.8642 226.369 94.2863ZM226.369 89.962C226.369 90.3842 226.04 90.7136 225.628 90.7136C225.206 90.7136 224.876 90.3842 224.876 89.962C224.876 89.5399 225.206 89.2104 225.628 89.2104C226.04 89.2104 226.369 89.5399 226.369 89.962ZM228.289 94.8629V94.0083C230.06 92.4536 231.923 91.0946 231.923 89.6223C231.923 88.8398 231.584 88.3044 230.709 88.3044C229.885 88.3044 229.442 88.881 229.411 89.7252H228.279C228.32 88.0985 229.37 87.3057 230.698 87.3057C232.222 87.3057 233.087 88.222 233.087 89.5708C233.087 91.3932 231.234 92.7831 230.029 93.8848H233.293V94.8629H228.289ZM238.765 94.9658V93.4008H235.038V92.5154L238.497 87.5528H239.918V92.3816H240.875V93.4008H239.918V94.9658H238.765ZM236.386 92.3816H238.816V88.7471L236.386 92.3816Z" fill="#221F1F"/>
<circle cx="252.369" cy="90.8631" r="8.57989" fill="#EBEBEB" stroke="#EBEBEB" stroke-width="1.71598" stroke-linecap="round" stroke-linejoin="round"/>
<path fill-rule="evenodd" clip-rule="evenodd" d="M250.652 87.4307L255.8 90.8626L250.652 94.2946V87.4307Z" fill="#808C9C" stroke="#808C9C" stroke-width="1.71598" stroke-linecap="round" stroke-linejoin="round"/>
<rect x="10.7461" y="115.443" width="250.203" height="3.43195" rx="1.71598" fill="#EBEBEB"/>
<rect x="10.7461" y="115.443" width="97.8446" height="3.43195" rx="1.71598" fill="#F2605F"/>
<rect x="119.074" y="115.443" width="41.9334" height="3.43195" rx="1.71598" fill="#C4C4C4"/>
<rect x="171.49" y="115.443" width="36.3423" height="3.43195" rx="1.71598" fill="#F2605F"/>
<rect x="218.316" y="115.443" width="13.9778" height="3.43195" rx="1.71598" fill="#C4C4C4"/>
<rect x="0.960938" y="139.814" width="273" height="63.5439" rx="8" fill="white"/>
<path d="M11.4434 156.506V155.568H17.9953V156.506H15.2483V164.304H14.1904V156.506H11.4434ZM22.729 161.625V157.752H23.7357V164.304H22.729V163.195H22.6608C22.5072 163.527 22.2683 163.81 21.9442 164.044C21.62 164.274 21.2105 164.389 20.7157 164.389C20.3062 164.389 19.9422 164.299 19.6237 164.12C19.3052 163.938 19.0549 163.665 18.873 163.301C18.691 162.934 18.6 162.472 18.6 161.915V157.752H19.6066V161.847C19.6066 162.324 19.7403 162.706 20.0076 162.99C20.2777 163.274 20.6218 163.416 21.0399 163.416C21.2901 163.416 21.5446 163.352 21.8034 163.225C22.065 163.097 22.284 162.9 22.4603 162.636C22.6394 162.371 22.729 162.034 22.729 161.625ZM28.3265 164.44C27.6952 164.44 27.1506 164.301 26.6928 164.022C26.2378 163.741 25.8866 163.348 25.6392 162.845C25.3947 162.339 25.2724 161.75 25.2724 161.079C25.2724 160.408 25.3947 159.816 25.6392 159.304C25.8866 158.79 26.2307 158.389 26.6715 158.102C27.1151 157.812 27.6327 157.666 28.2241 157.666C28.5654 157.666 28.9024 157.723 29.2351 157.837C29.5678 157.951 29.8707 158.136 30.1437 158.392C30.4166 158.645 30.6342 158.98 30.7963 159.398C30.9584 159.816 31.0394 160.331 31.0394 160.942V161.369H25.989V160.499H30.0157C30.0157 160.129 29.9417 159.799 29.7939 159.509C29.6488 159.219 29.4413 158.99 29.1711 158.822C28.9038 158.655 28.5881 158.571 28.2241 158.571C27.8232 158.571 27.4762 158.67 27.1833 158.869C26.8933 159.066 26.6701 159.322 26.5137 159.637C26.3572 159.953 26.279 160.291 26.279 160.652V161.233C26.279 161.727 26.3644 162.147 26.535 162.491C26.7084 162.832 26.9487 163.092 27.2559 163.271C27.563 163.448 27.9199 163.536 28.3265 163.536C28.591 163.536 28.8299 163.499 29.0431 163.425C29.2593 163.348 29.4455 163.234 29.6019 163.084C29.7583 162.93 29.8792 162.74 29.9645 162.512L30.937 162.785C30.8347 163.115 30.6626 163.405 30.4209 163.655C30.1792 163.903 29.8806 164.096 29.5251 164.235C29.1697 164.372 28.7701 164.44 28.3265 164.44ZM37.2117 159.219L36.3074 159.475C36.2505 159.324 36.1666 159.178 36.0557 159.036C35.9477 158.891 35.7998 158.771 35.6121 158.677C35.4244 158.584 35.1841 158.537 34.8912 158.537C34.4903 158.537 34.1561 158.629 33.8888 158.814C33.6244 158.996 33.4921 159.228 33.4921 159.509C33.4921 159.759 33.5831 159.957 33.7651 160.102C33.9471 160.247 34.2315 160.368 34.6182 160.465L35.5908 160.704C36.1766 160.846 36.6131 161.063 36.9003 161.356C37.1875 161.646 37.3311 162.02 37.3311 162.478C37.3311 162.853 37.2231 163.189 37.007 163.485C36.7937 163.78 36.4951 164.014 36.1112 164.184C35.7273 164.355 35.2808 164.44 34.7718 164.44C34.1035 164.44 33.5504 164.295 33.1125 164.005C32.6746 163.715 32.3973 163.291 32.2807 162.734L33.2362 162.495C33.3272 162.848 33.4992 163.112 33.7523 163.289C34.0083 163.465 34.3424 163.553 34.7547 163.553C35.2239 163.553 35.5965 163.453 35.8723 163.254C36.151 163.052 36.2903 162.811 36.2903 162.529C36.2903 162.302 36.2107 162.111 36.0515 161.958C35.8922 161.801 35.6477 161.685 35.3178 161.608L34.2258 161.352C33.6258 161.21 33.185 160.989 32.9035 160.691C32.6248 160.389 32.4854 160.013 32.4854 159.56C32.4854 159.191 32.5892 158.864 32.7968 158.579C33.0073 158.295 33.2931 158.072 33.6542 157.91C34.0182 157.748 34.4305 157.666 34.8912 157.666C35.5396 157.666 36.0486 157.809 36.4183 158.093C36.7908 158.377 37.0553 158.753 37.2117 159.219ZM41.3205 164.44C40.7745 164.44 40.2925 164.302 39.8745 164.026C39.4565 163.748 39.1294 163.355 38.8934 162.849C38.6574 162.34 38.5394 161.739 38.5394 161.045C38.5394 160.357 38.6574 159.759 38.8934 159.253C39.1294 158.747 39.4579 158.356 39.8787 158.08C40.2996 157.804 40.7859 157.666 41.3376 157.666C41.7641 157.666 42.1011 157.738 42.3485 157.88C42.5988 158.019 42.7893 158.178 42.9201 158.358C43.0537 158.534 43.1575 158.679 43.2315 158.793H43.3168V155.568H44.3235V164.304H43.3509V163.297H43.2315C43.1575 163.416 43.0523 163.567 42.9158 163.749C42.7793 163.928 42.5845 164.089 42.3314 164.231C42.0784 164.371 41.7414 164.44 41.3205 164.44ZM41.457 163.536C41.8608 163.536 42.2021 163.431 42.4807 163.22C42.7594 163.007 42.9713 162.713 43.1163 162.337C43.2613 161.959 43.3339 161.523 43.3339 161.028C43.3339 160.539 43.2628 160.111 43.1206 159.744C42.9784 159.374 42.768 159.087 42.4893 158.882C42.2106 158.675 41.8665 158.571 41.457 158.571C41.0304 158.571 40.675 158.68 40.3906 158.899C40.1091 159.115 39.8972 159.41 39.755 159.782C39.6157 160.152 39.546 160.567 39.546 161.028C39.546 161.494 39.6171 161.918 39.7593 162.299C39.9043 162.677 40.1176 162.979 40.3991 163.203C40.6835 163.425 41.0361 163.536 41.457 163.536ZM48.235 164.457C47.8198 164.457 47.443 164.379 47.1046 164.223C46.7662 164.063 46.4975 163.834 46.2984 163.536C46.0994 163.234 45.9998 162.87 45.9998 162.444C45.9998 162.069 46.0738 161.764 46.2216 161.531C46.3695 161.295 46.5672 161.11 46.8146 160.977C47.062 160.843 47.335 160.743 47.6335 160.678C47.935 160.61 48.2378 160.556 48.5421 160.516C48.9402 160.465 49.263 160.426 49.5104 160.401C49.7606 160.372 49.9426 160.325 50.0564 160.26C50.173 160.195 50.2313 160.081 50.2313 159.919V159.885C50.2313 159.464 50.1161 159.137 49.8858 158.904C49.6583 158.67 49.3128 158.554 48.8492 158.554C48.3686 158.554 47.9919 158.659 47.7189 158.869C47.4459 159.08 47.2539 159.304 47.143 159.543L46.1875 159.202C46.3581 158.804 46.5856 158.494 46.87 158.272C47.1572 158.048 47.47 157.891 47.8084 157.803C48.1497 157.712 48.4852 157.666 48.8151 157.666C49.0255 157.666 49.2673 157.692 49.5403 157.743C49.8161 157.792 50.082 157.893 50.3379 158.046C50.5967 158.2 50.8114 158.431 50.982 158.741C51.1526 159.051 51.238 159.467 51.238 159.987V164.304H50.2313V163.416H50.1801C50.1118 163.559 49.9981 163.711 49.8388 163.873C49.6796 164.035 49.4677 164.173 49.2033 164.287C48.9388 164.4 48.6161 164.457 48.235 164.457ZM48.3886 163.553C48.7867 163.553 49.1222 163.475 49.3952 163.318C49.6711 163.162 49.8787 162.96 50.018 162.713C50.1602 162.465 50.2313 162.205 50.2313 161.932V161.011C50.1886 161.062 50.0948 161.109 49.9498 161.151C49.8076 161.191 49.6426 161.227 49.4549 161.258C49.2701 161.287 49.0895 161.312 48.9132 161.335C48.7398 161.355 48.599 161.372 48.4909 161.386C48.2293 161.42 47.9847 161.476 47.7572 161.552C47.5326 161.626 47.3506 161.739 47.2113 161.889C47.0748 162.037 47.0065 162.239 47.0065 162.495C47.0065 162.845 47.1359 163.109 47.3947 163.289C47.6563 163.465 47.9876 163.553 48.3886 163.553ZM53.4891 166.761C53.3185 166.761 53.1663 166.746 53.0327 166.718C52.899 166.692 52.8066 166.667 52.7554 166.641L53.0114 165.754C53.2559 165.817 53.472 165.839 53.6597 165.822C53.8474 165.805 54.0138 165.721 54.1588 165.571C54.3067 165.423 54.4417 165.182 54.564 164.85L54.7517 164.338L52.3289 157.752H53.4209L55.2295 162.973H55.2977L57.1063 157.752H58.1983L55.4171 165.259C55.292 165.598 55.137 165.878 54.9522 166.1C54.7674 166.324 54.5527 166.491 54.3081 166.599C54.0664 166.707 53.7934 166.761 53.4891 166.761ZM64.8334 164.457C64.4182 164.457 64.0414 164.379 63.703 164.223C63.3646 164.063 63.0959 163.834 62.8968 163.536C62.6978 163.234 62.5982 162.87 62.5982 162.444C62.5982 162.069 62.6722 161.764 62.82 161.531C62.9679 161.295 63.1655 161.11 63.413 160.977C63.6604 160.843 63.9334 160.743 64.2319 160.678C64.5334 160.61 64.8362 160.556 65.1405 160.516C65.5386 160.465 65.8614 160.426 66.1088 160.401C66.359 160.372 66.541 160.325 66.6548 160.26C66.7714 160.195 66.8297 160.081 66.8297 159.919V159.885C66.8297 159.464 66.7145 159.137 66.4842 158.904C66.2567 158.67 65.9112 158.554 65.4476 158.554C64.967 158.554 64.5902 158.659 64.3173 158.869C64.0443 159.08 63.8523 159.304 63.7414 159.543L62.7859 159.202C62.9565 158.804 63.184 158.494 63.4684 158.272C63.7556 158.048 64.0684 157.891 64.4068 157.803C64.7481 157.712 65.0836 157.666 65.4135 157.666C65.6239 157.666 65.8657 157.692 66.1386 157.743C66.4145 157.792 66.6804 157.893 66.9363 158.046C67.1951 158.2 67.4098 158.431 67.5804 158.741C67.751 159.051 67.8363 159.467 67.8363 159.987V164.304H66.8297V163.416H66.7785C66.7102 163.559 66.5965 163.711 66.4372 163.873C66.278 164.035 66.0661 164.173 65.8017 164.287C65.5372 164.4 65.2144 164.457 64.8334 164.457ZM64.9869 163.553C65.3851 163.553 65.7206 163.475 65.9936 163.318C66.2695 163.162 66.4771 162.96 66.6164 162.713C66.7586 162.465 66.8297 162.205 66.8297 161.932V161.011C66.787 161.062 66.6932 161.109 66.5481 161.151C66.406 161.191 66.241 161.227 66.0533 161.258C65.8685 161.287 65.6879 161.312 65.5116 161.335C65.3381 161.355 65.1974 161.372 65.0893 161.386C64.8277 161.42 64.5831 161.476 64.3556 161.552C64.131 161.626 63.949 161.739 63.8096 161.889C63.6732 162.037 63.6049 162.239 63.6049 162.495C63.6049 162.845 63.7343 163.109 63.9931 163.289C64.2547 163.465 64.586 163.553 64.9869 163.553ZM72.5231 157.752V158.605H69.1277V157.752H72.5231ZM70.1174 156.182H71.124V162.427C71.124 162.711 71.1653 162.925 71.2477 163.067C71.333 163.206 71.4411 163.3 71.5719 163.348C71.7056 163.394 71.8463 163.416 71.9942 163.416C72.1051 163.416 72.1961 163.411 72.2672 163.399C72.3383 163.385 72.3952 163.374 72.4378 163.365L72.6426 164.27C72.5743 164.295 72.4791 164.321 72.3568 164.346C72.2345 164.375 72.0795 164.389 71.8918 164.389C71.6075 164.389 71.3288 164.328 71.0558 164.206C70.7856 164.083 70.561 163.897 70.3818 163.647C70.2055 163.397 70.1174 163.081 70.1174 162.7V156.182ZM80.4699 155.568V164.304H79.412V156.677H79.3608L77.2281 158.093V157.018L79.412 155.568H80.4699ZM82.9823 164.304V163.536L85.8658 160.379C86.2042 160.01 86.4829 159.688 86.7019 159.415C86.9209 159.14 87.0829 158.881 87.1882 158.639C87.2962 158.394 87.3503 158.139 87.3503 157.871C87.3503 157.564 87.2763 157.298 87.1284 157.074C86.9834 156.849 86.7844 156.675 86.5313 156.553C86.2782 156.431 85.9938 156.37 85.6782 156.37C85.3426 156.37 85.0497 156.439 84.7994 156.579C84.552 156.715 84.3601 156.907 84.2236 157.155C84.0899 157.402 84.0231 157.692 84.0231 158.025H83.0164C83.0164 157.513 83.1344 157.064 83.3705 156.677C83.6065 156.29 83.9278 155.989 84.3345 155.773C84.744 155.556 85.2033 155.448 85.7123 155.448C86.2241 155.448 86.6777 155.556 87.073 155.773C87.4683 155.989 87.7782 156.28 88.0029 156.647C88.2275 157.014 88.3399 157.422 88.3399 157.871C88.3399 158.193 88.2816 158.507 88.165 158.814C88.0512 159.118 87.8522 159.458 87.5678 159.833C87.2863 160.206 86.8953 160.661 86.3948 161.198L84.4326 163.297V163.365H88.4934V164.304H82.9823ZM91.0058 163.186C90.7954 163.186 90.6148 163.111 90.4641 162.96C90.3134 162.809 90.238 162.629 90.238 162.418C90.238 162.208 90.3134 162.027 90.4641 161.877C90.6148 161.726 90.7954 161.651 91.0058 161.651C91.2163 161.651 91.3969 161.726 91.5476 161.877C91.6983 162.027 91.7737 162.208 91.7737 162.418C91.7737 162.558 91.7381 162.686 91.667 162.802C91.5988 162.919 91.5063 163.013 91.3897 163.084C91.276 163.152 91.148 163.186 91.0058 163.186ZM91.0058 158.767C90.7954 158.767 90.6148 158.692 90.4641 158.541C90.3134 158.39 90.238 158.21 90.238 157.999C90.238 157.789 90.3134 157.608 90.4641 157.457C90.6148 157.307 90.7954 157.231 91.0058 157.231C91.2163 157.231 91.3969 157.307 91.5476 157.457C91.6983 157.608 91.7737 157.789 91.7737 157.999C91.7737 158.139 91.7381 158.267 91.667 158.383C91.5988 158.5 91.5063 158.594 91.3897 158.665C91.276 158.733 91.148 158.767 91.0058 158.767ZM93.5631 164.304V163.536L96.4466 160.379C96.785 160.01 97.0637 159.688 97.2826 159.415C97.5016 159.14 97.6637 158.881 97.7689 158.639C97.877 158.394 97.931 158.139 97.931 157.871C97.931 157.564 97.8571 157.298 97.7092 157.074C97.5642 156.849 97.3651 156.675 97.112 156.553C96.8589 156.431 96.5745 156.37 96.2589 156.37C95.9233 156.37 95.6304 156.439 95.3802 156.579C95.1328 156.715 94.9408 156.907 94.8043 157.155C94.6707 157.402 94.6039 157.692 94.6039 158.025H93.5972C93.5972 157.513 93.7152 157.064 93.9512 156.677C94.1872 156.29 94.5086 155.989 94.9152 155.773C95.3247 155.556 95.784 155.448 96.293 155.448C96.8049 155.448 97.2585 155.556 97.6537 155.773C98.049 155.989 98.359 156.28 98.5836 156.647C98.8083 157.014 98.9206 157.422 98.9206 157.871C98.9206 158.193 98.8623 158.507 98.7457 158.814C98.632 159.118 98.4329 159.458 98.1485 159.833C97.867 160.206 97.476 160.661 96.9755 161.198L95.0133 163.297V163.365H99.0742V164.304H93.5631ZM100.443 162.512V161.642L104.282 155.568H104.914V156.916H104.487L101.587 161.505V161.574H106.756V162.512H100.443ZM104.555 164.304V162.248V161.842V155.568H105.562V164.304H104.555Z" fill="#221F1F"/>
<path d="M213.206 160.659C213.206 158.518 213.782 156.87 215.883 156.87C217.983 156.87 218.56 158.518 218.56 160.659C218.56 162.842 217.983 164.489 215.883 164.489C213.782 164.489 213.206 162.842 213.206 160.659ZM217.407 160.659C217.407 159.259 217.252 157.941 215.883 157.941C214.513 157.941 214.359 159.259 214.359 160.659C214.359 162.131 214.513 163.418 215.883 163.418C217.252 163.418 217.407 162.131 217.407 160.659ZM221.463 164.51V158.075H220.505V157.004H222.647V164.51H221.463ZM226.486 163.83C226.486 164.252 226.157 164.582 225.745 164.582C225.323 164.582 224.994 164.252 224.994 163.83C224.994 163.408 225.323 163.079 225.745 163.079C226.157 163.079 226.486 163.408 226.486 163.83ZM226.486 159.506C226.486 159.928 226.157 160.258 225.745 160.258C225.323 160.258 224.994 159.928 224.994 159.506C224.994 159.084 225.323 158.754 225.745 158.754C226.157 158.754 226.486 159.084 226.486 159.506ZM228.406 164.407V163.552C230.177 161.998 232.041 160.639 232.041 159.166C232.041 158.384 231.701 157.848 230.826 157.848C230.002 157.848 229.559 158.425 229.528 159.269H228.396C228.437 157.642 229.487 156.85 230.815 156.85C232.339 156.85 233.204 157.766 233.204 159.115C233.204 160.937 231.351 162.327 230.146 163.429H233.41V164.407H228.406ZM238.882 164.51V162.945H235.155V162.059L238.614 157.097H240.035V161.926H240.993V162.945H240.035V164.51H238.882ZM236.504 161.926H238.933V158.291L236.504 161.926Z" fill="#221F1F"/>
<circle cx="255.48" cy="160.407" r="8.57989" fill="#EBEBEB" stroke="#EBEBEB" stroke-width="1.71598" stroke-linecap="round" stroke-linejoin="round"/>
<path fill-rule="evenodd" clip-rule="evenodd" d="M253.764 156.975L258.912 160.407L253.764 163.839V156.975Z" fill="#808C9C" stroke="#808C9C" stroke-width="1.71598" stroke-linecap="round" stroke-linejoin="round"/>
<rect x="10.8633" y="184.987" width="235.575" height="3.43195" rx="1.71598" fill="#EBEBEB"/>
<rect x="10.8633" y="184.987" width="92.1244" height="3.43195" rx="1.71598" fill="#57DAA3"/>
<rect x="112.857" y="184.987" width="39.4819" height="3.43195" rx="1.71598" fill="#C4C4C4"/>
<rect x="162.211" y="184.987" width="34.2176" height="3.43195" rx="1.71598" fill="#57DAA3"/>
<rect x="206.299" y="184.987" width="13.1606" height="3.43195" rx="1.71598" fill="#C4C4C4"/>
<rect x="0.960938" y="209.358" width="273" height="63.5439" rx="8" fill="white"/>
<path d="M13.1602 226.494V225.555H19.7121V226.494H16.9651V234.291H15.9072V226.494H13.1602ZM24.4458 231.612V227.739H25.4525V234.291H24.4458V233.182H24.3776C24.224 233.515 23.9851 233.798 23.661 234.031C23.3368 234.261 22.9273 234.376 22.4325 234.376C22.023 234.376 21.659 234.287 21.3405 234.108C21.022 233.926 20.7717 233.653 20.5897 233.289C20.4078 232.922 20.3168 232.46 20.3168 231.902V227.739H21.3234V231.834C21.3234 232.312 21.4571 232.693 21.7244 232.977C21.9945 233.262 22.3386 233.404 22.7567 233.404C23.0069 233.404 23.2614 233.34 23.5202 233.212C23.7818 233.084 24.0008 232.888 24.1771 232.623C24.3562 232.359 24.4458 232.022 24.4458 231.612ZM30.0433 234.428C29.412 234.428 28.8674 234.288 28.4096 234.009C27.9546 233.728 27.6034 233.336 27.356 232.832C27.1114 232.326 26.9892 231.737 26.9892 231.066C26.9892 230.395 27.1114 229.804 27.356 229.292C27.6034 228.777 27.9475 228.376 28.3883 228.089C28.8319 227.799 29.3494 227.654 29.9409 227.654C30.2822 227.654 30.6192 227.711 30.9519 227.824C31.2846 227.938 31.5875 228.123 31.8604 228.379C32.1334 228.632 32.351 228.968 32.5131 229.386C32.6752 229.804 32.7562 230.318 32.7562 230.93V231.356H27.7058V230.486H31.7325C31.7325 230.116 31.6585 229.787 31.5107 229.497C31.3656 229.206 31.1581 228.978 30.8879 228.81C30.6206 228.642 30.3049 228.558 29.9409 228.558C29.54 228.558 29.193 228.658 28.9001 228.857C28.6101 229.053 28.3869 229.309 28.2304 229.624C28.074 229.94 27.9958 230.279 27.9958 230.64V231.22C27.9958 231.715 28.0812 232.134 28.2518 232.478C28.4252 232.819 28.6655 233.08 28.9727 233.259C29.2798 233.435 29.6367 233.523 30.0433 233.523C30.3078 233.523 30.5467 233.486 30.7599 233.412C30.9761 233.336 31.1623 233.222 31.3187 233.071C31.4751 232.918 31.596 232.727 31.6813 232.499L32.6538 232.772C32.5515 233.102 32.3794 233.392 32.1377 233.643C31.896 233.89 31.5974 234.083 31.2419 234.223C30.8865 234.359 30.4869 234.428 30.0433 234.428ZM38.9285 229.206L38.0242 229.462C37.9673 229.312 37.8834 229.165 37.7725 229.023C37.6645 228.878 37.5166 228.759 37.3289 228.665C37.1412 228.571 36.9009 228.524 36.608 228.524C36.2071 228.524 35.8729 228.616 35.6056 228.801C35.3412 228.983 35.2089 229.215 35.2089 229.497C35.2089 229.747 35.2999 229.944 35.4819 230.089C35.6639 230.234 35.9483 230.355 36.335 230.452L37.3076 230.691C37.8934 230.833 38.3299 231.051 38.6171 231.344C38.9043 231.634 39.0479 232.008 39.0479 232.465C39.0479 232.841 38.9399 233.176 38.7237 233.472C38.5105 233.768 38.2119 234.001 37.828 234.172C37.4441 234.342 36.9976 234.428 36.4886 234.428C35.8203 234.428 35.2672 234.282 34.8293 233.992C34.3914 233.702 34.1141 233.279 33.9975 232.721L34.953 232.482C35.044 232.835 35.216 233.1 35.4691 233.276C35.7251 233.452 36.0592 233.54 36.4715 233.54C36.9407 233.54 37.3133 233.441 37.5891 233.242C37.8678 233.04 38.0071 232.798 38.0071 232.517C38.0071 232.289 37.9275 232.099 37.7683 231.945C37.609 231.789 37.3645 231.672 37.0346 231.595L35.9426 231.339C35.3426 231.197 34.9018 230.977 34.6203 230.678C34.3416 230.377 34.2022 230 34.2022 229.548C34.2022 229.178 34.306 228.851 34.5136 228.567C34.7241 228.282 35.0099 228.059 35.371 227.897C35.735 227.735 36.1473 227.654 36.608 227.654C37.2564 227.654 37.7654 227.796 38.1351 228.08C38.5076 228.365 38.7721 228.74 38.9285 229.206ZM43.0373 234.428C42.4913 234.428 42.0093 234.29 41.5913 234.014C41.1732 233.735 40.8462 233.343 40.6102 232.836C40.3742 232.327 40.2562 231.726 40.2562 231.032C40.2562 230.344 40.3742 229.747 40.6102 229.241C40.8462 228.734 41.1747 228.343 41.5955 228.068C42.0164 227.792 42.5027 227.654 43.0544 227.654C43.4809 227.654 43.8179 227.725 44.0653 227.867C44.3156 228.006 44.5061 228.166 44.6369 228.345C44.7705 228.521 44.8743 228.666 44.9483 228.78H45.0336V225.555H46.0403V234.291H45.0677V233.284H44.9483C44.8743 233.404 44.7691 233.554 44.6326 233.736C44.4961 233.916 44.3013 234.076 44.0482 234.219C43.7952 234.358 43.4582 234.428 43.0373 234.428ZM43.1738 233.523C43.5776 233.523 43.9189 233.418 44.1975 233.208C44.4762 232.994 44.6881 232.7 44.8331 232.325C44.9781 231.946 45.0507 231.51 45.0507 231.015C45.0507 230.526 44.9796 230.098 44.8374 229.731C44.6952 229.361 44.4848 229.074 44.2061 228.869C43.9274 228.662 43.5833 228.558 43.1738 228.558C42.7472 228.558 42.3918 228.668 42.1074 228.887C41.8259 229.103 41.614 229.397 41.4718 229.77C41.3325 230.139 41.2628 230.554 41.2628 231.015C41.2628 231.481 41.3339 231.905 41.4761 232.286C41.6211 232.664 41.8344 232.966 42.1159 233.19C42.4003 233.412 42.7529 233.523 43.1738 233.523ZM49.9518 234.445C49.5366 234.445 49.1598 234.366 48.8214 234.21C48.483 234.051 48.2143 233.822 48.0152 233.523C47.8162 233.222 47.7166 232.858 47.7166 232.431C47.7166 232.056 47.7906 231.752 47.9384 231.518C48.0863 231.282 48.284 231.098 48.5314 230.964C48.7788 230.83 49.0518 230.731 49.3503 230.665C49.6518 230.597 49.9546 230.543 50.2589 230.503C50.657 230.452 50.9798 230.414 51.2272 230.388C51.4774 230.36 51.6594 230.313 51.7732 230.247C51.8898 230.182 51.9481 230.068 51.9481 229.906V229.872C51.9481 229.451 51.8329 229.124 51.6026 228.891C51.3751 228.658 51.0296 228.541 50.566 228.541C50.0854 228.541 49.7087 228.646 49.4357 228.857C49.1627 229.067 48.9707 229.292 48.8598 229.531L47.9043 229.189C48.0749 228.791 48.3024 228.481 48.5868 228.26C48.874 228.035 49.1868 227.878 49.5252 227.79C49.8665 227.699 50.202 227.654 50.5319 227.654C50.7423 227.654 50.9841 227.679 51.2571 227.731C51.5329 227.779 51.7988 227.88 52.0547 228.033C52.3135 228.187 52.5282 228.419 52.6988 228.729C52.8694 229.039 52.9548 229.454 52.9548 229.974V234.291H51.9481V233.404H51.8969C51.8286 233.546 51.7149 233.698 51.5556 233.86C51.3964 234.022 51.1845 234.16 50.9201 234.274C50.6556 234.388 50.3328 234.445 49.9518 234.445ZM50.1054 233.54C50.5035 233.54 50.839 233.462 51.112 233.306C51.3879 233.149 51.5955 232.947 51.7348 232.7C51.877 232.453 51.9481 232.192 51.9481 231.919V230.998C51.9054 231.049 51.8116 231.096 51.6665 231.139C51.5244 231.179 51.3594 231.214 51.1717 231.245C50.9869 231.274 50.8063 231.299 50.63 231.322C50.4565 231.342 50.3158 231.359 50.2077 231.373C49.9461 231.407 49.7015 231.463 49.474 231.54C49.2494 231.614 49.0674 231.726 48.9281 231.877C48.7916 232.025 48.7233 232.226 48.7233 232.482C48.7233 232.832 48.8527 233.097 49.1115 233.276C49.3731 233.452 49.7044 233.54 50.1054 233.54ZM55.2059 236.748C55.0353 236.748 54.8831 236.734 54.7495 236.705C54.6158 236.68 54.5234 236.654 54.4722 236.629L54.7282 235.741C54.9727 235.804 55.1888 235.827 55.3765 235.81C55.5642 235.792 55.7306 235.709 55.8756 235.558C56.0235 235.41 56.1585 235.17 56.2808 234.837L56.4685 234.325L54.0457 227.739H55.1377L56.9463 232.96H57.0145L58.8231 227.739H59.9151L57.1339 235.247C57.0088 235.585 56.8538 235.865 56.669 236.087C56.4842 236.311 56.2695 236.478 56.0249 236.586C55.7832 236.694 55.5102 236.748 55.2059 236.748ZM66.5502 234.445C66.135 234.445 65.7582 234.366 65.4198 234.21C65.0814 234.051 64.8127 233.822 64.6136 233.523C64.4146 233.222 64.315 232.858 64.315 232.431C64.315 232.056 64.389 231.752 64.5368 231.518C64.6847 231.282 64.8823 231.098 65.1297 230.964C65.3772 230.83 65.6501 230.731 65.9487 230.665C66.2502 230.597 66.553 230.543 66.8573 230.503C67.2554 230.452 67.5782 230.414 67.8256 230.388C68.0758 230.36 68.2578 230.313 68.3716 230.247C68.4882 230.182 68.5465 230.068 68.5465 229.906V229.872C68.5465 229.451 68.4313 229.124 68.201 228.891C67.9735 228.658 67.6279 228.541 67.1644 228.541C66.6838 228.541 66.307 228.646 66.034 228.857C65.7611 229.067 65.5691 229.292 65.4582 229.531L64.5027 229.189C64.6733 228.791 64.9008 228.481 65.1852 228.26C65.4724 228.035 65.7852 227.878 66.1236 227.79C66.4649 227.699 66.8004 227.654 67.1303 227.654C67.3407 227.654 67.5825 227.679 67.8554 227.731C68.1313 227.779 68.3972 227.88 68.6531 228.033C68.9119 228.187 69.1266 228.419 69.2972 228.729C69.4678 229.039 69.5531 229.454 69.5531 229.974V234.291H68.5465V233.404H68.4953C68.427 233.546 68.3133 233.698 68.154 233.86C67.9948 234.022 67.7829 234.16 67.5185 234.274C67.254 234.388 66.9312 234.445 66.5502 234.445ZM66.7037 233.54C67.1019 233.54 67.4374 233.462 67.7104 233.306C67.9863 233.149 68.1938 232.947 68.3332 232.7C68.4754 232.453 68.5465 232.192 68.5465 231.919V230.998C68.5038 231.049 68.41 231.096 68.2649 231.139C68.1228 231.179 67.9578 231.214 67.7701 231.245C67.5853 231.274 67.4047 231.299 67.2284 231.322C67.0549 231.342 66.9142 231.359 66.8061 231.373C66.5445 231.407 66.2999 231.463 66.0724 231.54C65.8478 231.614 65.6658 231.726 65.5264 231.877C65.3899 232.025 65.3217 232.226 65.3217 232.482C65.3217 232.832 65.4511 233.097 65.7099 233.276C65.9715 233.452 66.3028 233.54 66.7037 233.54ZM74.2399 227.739V228.592H70.8445V227.739H74.2399ZM71.8342 226.169H72.8408V232.414C72.8408 232.699 72.8821 232.912 72.9645 233.054C73.0498 233.193 73.1579 233.287 73.2887 233.336C73.4224 233.381 73.5631 233.404 73.711 233.404C73.8219 233.404 73.9129 233.398 73.984 233.387C74.0551 233.372 74.112 233.361 74.1546 233.353L74.3594 234.257C74.2911 234.282 74.1959 234.308 74.0736 234.334C73.9513 234.362 73.7963 234.376 73.6086 234.376C73.3243 234.376 73.0456 234.315 72.7726 234.193C72.5024 234.071 72.2778 233.884 72.0986 233.634C71.9223 233.384 71.8342 233.068 71.8342 232.687V226.169ZM82.1867 225.555V234.291H81.1288V226.664H81.0776L78.9449 228.08V227.005L81.1288 225.555H82.1867ZM84.6991 234.291V233.523L87.5826 230.367C87.921 229.997 88.1997 229.676 88.4187 229.403C88.6376 229.127 88.7997 228.868 88.905 228.626C89.013 228.382 89.0671 228.126 89.0671 227.859C89.0671 227.551 88.9931 227.286 88.8452 227.061C88.7002 226.836 88.5012 226.663 88.2481 226.54C87.995 226.418 87.7106 226.357 87.3949 226.357C87.0594 226.357 86.7665 226.427 86.5162 226.566C86.2688 226.703 86.0769 226.895 85.9404 227.142C85.8067 227.389 85.7399 227.679 85.7399 228.012H84.7332C84.7332 227.5 84.8512 227.051 85.0873 226.664C85.3233 226.277 85.6446 225.976 86.0513 225.76C86.4608 225.544 86.92 225.436 87.4291 225.436C87.9409 225.436 88.3945 225.544 88.7898 225.76C89.1851 225.976 89.495 226.267 89.7197 226.634C89.9443 227.001 90.0567 227.409 90.0567 227.859C90.0567 228.18 89.9984 228.494 89.8818 228.801C89.768 229.106 89.569 229.445 89.2846 229.821C89.0031 230.193 88.6121 230.648 88.1116 231.186L86.1494 233.284V233.353H90.2102V234.291H84.6991ZM92.7226 233.173C92.5122 233.173 92.3316 233.098 92.1809 232.947C92.0302 232.797 91.9548 232.616 91.9548 232.406C91.9548 232.195 92.0302 232.015 92.1809 231.864C92.3316 231.713 92.5122 231.638 92.7226 231.638C92.9331 231.638 93.1137 231.713 93.2644 231.864C93.4151 232.015 93.4904 232.195 93.4904 232.406C93.4904 232.545 93.4549 232.673 93.3838 232.79C93.3156 232.906 93.2231 233 93.1065 233.071C92.9928 233.139 92.8648 233.173 92.7226 233.173ZM92.7226 228.754C92.5122 228.754 92.3316 228.679 92.1809 228.528C92.0302 228.378 91.9548 228.197 91.9548 227.987C91.9548 227.776 92.0302 227.595 92.1809 227.445C92.3316 227.294 92.5122 227.219 92.7226 227.219C92.9331 227.219 93.1137 227.294 93.2644 227.445C93.4151 227.595 93.4904 227.776 93.4904 227.987C93.4904 228.126 93.4549 228.254 93.3838 228.37C93.3156 228.487 93.2231 228.581 93.1065 228.652C92.9928 228.72 92.8648 228.754 92.7226 228.754ZM95.2798 234.291V233.523L98.1634 230.367C98.5018 229.997 98.7805 229.676 98.9994 229.403C99.2184 229.127 99.3805 228.868 99.4857 228.626C99.5938 228.382 99.6478 228.126 99.6478 227.859C99.6478 227.551 99.5739 227.286 99.426 227.061C99.281 226.836 99.0819 226.663 98.8288 226.54C98.5757 226.418 98.2913 226.357 97.9757 226.357C97.6401 226.357 97.3472 226.427 97.097 226.566C96.8496 226.703 96.6576 226.895 96.5211 227.142C96.3875 227.389 96.3206 227.679 96.3206 228.012H95.314C95.314 227.5 95.432 227.051 95.668 226.664C95.904 226.277 96.2254 225.976 96.632 225.76C97.0415 225.544 97.5008 225.436 98.0098 225.436C98.5217 225.436 98.9753 225.544 99.3705 225.76C99.7658 225.976 100.076 226.267 100.3 226.634C100.525 227.001 100.637 227.409 100.637 227.859C100.637 228.18 100.579 228.494 100.463 228.801C100.349 229.106 100.15 229.445 99.8653 229.821C99.5838 230.193 99.1928 230.648 98.6923 231.186L96.7301 233.284V233.353H100.791V234.291H95.2798ZM102.16 232.499V231.629L105.999 225.555H106.631V226.903H106.204L103.303 231.493V231.561H108.473V232.499H102.16ZM106.272 234.291V232.235V231.83V225.555H107.279V234.291H106.272Z" fill="#221F1F"/>
<path d="M214.923 230.646C214.923 228.505 215.499 226.858 217.6 226.858C219.7 226.858 220.276 228.505 220.276 230.646C220.276 232.829 219.7 234.476 217.6 234.476C215.499 234.476 214.923 232.829 214.923 230.646ZM219.123 230.646C219.123 229.246 218.969 227.928 217.6 227.928C216.23 227.928 216.076 229.246 216.076 230.646C216.076 232.119 216.23 233.406 217.6 233.406C218.969 233.406 219.123 232.119 219.123 230.646ZM223.18 234.497V228.062H222.222V226.991H224.364V234.497H223.18ZM228.203 233.818C228.203 234.24 227.874 234.569 227.462 234.569C227.04 234.569 226.71 234.24 226.71 233.818C226.71 233.395 227.04 233.066 227.462 233.066C227.874 233.066 228.203 233.395 228.203 233.818ZM228.203 229.493C228.203 229.915 227.874 230.245 227.462 230.245C227.04 230.245 226.71 229.915 226.71 229.493C226.71 229.071 227.04 228.742 227.462 228.742C227.874 228.742 228.203 229.071 228.203 229.493ZM230.123 234.394V233.54C231.894 231.985 233.757 230.626 233.757 229.154C233.757 228.371 233.418 227.836 232.542 227.836C231.719 227.836 231.276 228.412 231.245 229.256H230.113C230.154 227.63 231.204 226.837 232.532 226.837C234.056 226.837 234.921 227.753 234.921 229.102C234.921 230.924 233.068 232.314 231.863 233.416H235.127V234.394H230.123ZM240.599 234.497V232.932H236.872V232.047L240.331 227.084H241.752V231.913H242.709V232.932H241.752V234.497H240.599ZM238.22 231.913H240.65V228.278L238.22 231.913Z" fill="#221F1F"/>
<circle cx="258.56" cy="230.394" r="8.57989" fill="#EBEBEB" stroke="#EBEBEB" stroke-width="1.71598" stroke-linecap="round" stroke-linejoin="round"/>
<path fill-rule="evenodd" clip-rule="evenodd" d="M256.844 226.962L261.992 230.394L256.844 233.826V226.962Z" fill="#808C9C" stroke="#808C9C" stroke-width="1.71598" stroke-linecap="round" stroke-linejoin="round"/>
<rect x="12.5801" y="254.975" width="253.9" height="3.43195" rx="1.71598" fill="#EBEBEB"/>
<rect x="12.5801" y="254.975" width="127.659" height="3.43195" rx="1.71598" fill="#C4C4C4"/>
<rect x="150.879" y="254.975" width="22.695" height="3.43195" rx="1.71598" fill="#C4C4C4"/>
<rect x="184.211" y="254.975" width="60.9928" height="3.43195" rx="1.71598" fill="#57DAA3"/>
<rect x="0.960938" y="278.902" width="273" height="63.5439" rx="8" fill="white"/>
<path d="M11.4434 295.594V294.656H17.9953V295.594H15.2483V303.392H14.1904V295.594H11.4434ZM22.729 300.713V296.84H23.7357V303.392H22.729V302.283H22.6608C22.5072 302.615 22.2683 302.898 21.9442 303.131C21.62 303.362 21.2105 303.477 20.7157 303.477C20.3062 303.477 19.9422 303.387 19.6237 303.208C19.3052 303.026 19.0549 302.753 18.873 302.389C18.691 302.022 18.6 301.56 18.6 301.003V296.84H19.6066V300.935C19.6066 301.412 19.7403 301.793 20.0076 302.078C20.2777 302.362 20.6218 302.504 21.0399 302.504C21.2901 302.504 21.5446 302.44 21.8034 302.312C22.065 302.184 22.284 301.988 22.4603 301.724C22.6394 301.459 22.729 301.122 22.729 300.713ZM28.3265 303.528C27.6952 303.528 27.1506 303.389 26.6928 303.11C26.2378 302.829 25.8866 302.436 25.6392 301.933C25.3947 301.427 25.2724 300.838 25.2724 300.167C25.2724 299.496 25.3947 298.904 25.6392 298.392C25.8866 297.878 26.2307 297.477 26.6715 297.189C27.1151 296.899 27.6327 296.754 28.2241 296.754C28.5654 296.754 28.9024 296.811 29.2351 296.925C29.5678 297.039 29.8707 297.224 30.1437 297.48C30.4166 297.733 30.6342 298.068 30.7963 298.486C30.9584 298.904 31.0394 299.419 31.0394 300.03V300.457H25.989V299.587H30.0157C30.0157 299.217 29.9417 298.887 29.7939 298.597C29.6488 298.307 29.4413 298.078 29.1711 297.91C28.9038 297.743 28.5881 297.659 28.2241 297.659C27.8232 297.659 27.4762 297.758 27.1833 297.957C26.8933 298.153 26.6701 298.409 26.5137 298.725C26.3572 299.041 26.279 299.379 26.279 299.74V300.32C26.279 300.815 26.3644 301.235 26.535 301.579C26.7084 301.92 26.9487 302.18 27.2559 302.359C27.563 302.536 27.9199 302.624 28.3265 302.624C28.591 302.624 28.8299 302.587 29.0431 302.513C29.2593 302.436 29.4455 302.322 29.6019 302.172C29.7583 302.018 29.8792 301.828 29.9645 301.6L30.937 301.873C30.8347 302.203 30.6626 302.493 30.4209 302.743C30.1792 302.991 29.8806 303.184 29.5251 303.323C29.1697 303.46 28.7701 303.528 28.3265 303.528ZM37.2117 298.307L36.3074 298.563C36.2505 298.412 36.1666 298.266 36.0557 298.124C35.9477 297.979 35.7998 297.859 35.6121 297.765C35.4244 297.671 35.1841 297.625 34.8912 297.625C34.4903 297.625 34.1561 297.717 33.8888 297.902C33.6244 298.084 33.4921 298.316 33.4921 298.597C33.4921 298.847 33.5831 299.045 33.7651 299.19C33.9471 299.335 34.2315 299.456 34.6182 299.553L35.5908 299.791C36.1766 299.934 36.6131 300.151 36.9003 300.444C37.1875 300.734 37.3311 301.108 37.3311 301.566C37.3311 301.941 37.2231 302.277 37.007 302.573C36.7937 302.868 36.4951 303.102 36.1112 303.272C35.7273 303.443 35.2808 303.528 34.7718 303.528C34.1035 303.528 33.5504 303.383 33.1125 303.093C32.6746 302.803 32.3973 302.379 32.2807 301.822L33.2362 301.583C33.3272 301.936 33.4992 302.2 33.7523 302.376C34.0083 302.553 34.3424 302.641 34.7547 302.641C35.2239 302.641 35.5965 302.541 35.8723 302.342C36.151 302.14 36.2903 301.899 36.2903 301.617C36.2903 301.39 36.2107 301.199 36.0515 301.046C35.8922 300.889 35.6477 300.773 35.3178 300.696L34.2258 300.44C33.6258 300.298 33.185 300.077 32.9035 299.779C32.6248 299.477 32.4854 299.1 32.4854 298.648C32.4854 298.279 32.5892 297.952 32.7968 297.667C33.0073 297.383 33.2931 297.16 33.6542 296.998C34.0182 296.835 34.4305 296.754 34.8912 296.754C35.5396 296.754 36.0486 296.897 36.4183 297.181C36.7908 297.465 37.0553 297.841 37.2117 298.307ZM41.3205 303.528C40.7745 303.528 40.2925 303.39 39.8745 303.114C39.4565 302.836 39.1294 302.443 38.8934 301.937C38.6574 301.428 38.5394 300.827 38.5394 300.133C38.5394 299.445 38.6574 298.847 38.8934 298.341C39.1294 297.835 39.4579 297.444 39.8787 297.168C40.2996 296.892 40.7859 296.754 41.3376 296.754C41.7641 296.754 42.1011 296.825 42.3485 296.968C42.5988 297.107 42.7893 297.266 42.9201 297.445C43.0537 297.622 43.1575 297.767 43.2315 297.88H43.3168V294.656H44.3235V303.392H43.3509V302.385H43.2315C43.1575 302.504 43.0523 302.655 42.9158 302.837C42.7793 303.016 42.5845 303.177 42.3314 303.319C42.0784 303.458 41.7414 303.528 41.3205 303.528ZM41.457 302.624C41.8608 302.624 42.2021 302.519 42.4807 302.308C42.7594 302.095 42.9713 301.801 43.1163 301.425C43.2613 301.047 43.3339 300.61 43.3339 300.116C43.3339 299.627 43.2628 299.199 43.1206 298.832C42.9784 298.462 42.768 298.175 42.4893 297.97C42.2106 297.762 41.8665 297.659 41.457 297.659C41.0304 297.659 40.675 297.768 40.3906 297.987C40.1091 298.203 39.8972 298.498 39.755 298.87C39.6157 299.24 39.546 299.655 39.546 300.116C39.546 300.582 39.6171 301.006 39.7593 301.387C39.9043 301.765 40.1176 302.066 40.3991 302.291C40.6835 302.513 41.0361 302.624 41.457 302.624ZM48.235 303.545C47.8198 303.545 47.443 303.467 47.1046 303.311C46.7662 303.151 46.4975 302.922 46.2984 302.624C46.0994 302.322 45.9998 301.958 45.9998 301.532C45.9998 301.156 46.0738 300.852 46.2216 300.619C46.3695 300.383 46.5672 300.198 46.8146 300.064C47.062 299.931 47.335 299.831 47.6335 299.766C47.935 299.698 48.2378 299.644 48.5421 299.604C48.9402 299.553 49.263 299.514 49.5104 299.489C49.7606 299.46 49.9426 299.413 50.0564 299.348C50.173 299.282 50.2313 299.169 50.2313 299.007V298.972C50.2313 298.552 50.1161 298.225 49.8858 297.991C49.6583 297.758 49.3128 297.642 48.8492 297.642C48.3686 297.642 47.9919 297.747 47.7189 297.957C47.4459 298.168 47.2539 298.392 47.143 298.631L46.1875 298.29C46.3581 297.892 46.5856 297.582 46.87 297.36C47.1572 297.135 47.47 296.979 47.8084 296.891C48.1497 296.8 48.4852 296.754 48.8151 296.754C49.0255 296.754 49.2673 296.78 49.5403 296.831C49.8161 296.879 50.082 296.98 50.3379 297.134C50.5967 297.288 50.8114 297.519 50.982 297.829C51.1526 298.139 51.238 298.554 51.238 299.075V303.392H50.2313V302.504H50.1801C50.1118 302.647 49.9981 302.799 49.8388 302.961C49.6796 303.123 49.4677 303.261 49.2033 303.375C48.9388 303.488 48.6161 303.545 48.235 303.545ZM48.3886 302.641C48.7867 302.641 49.1222 302.563 49.3952 302.406C49.6711 302.25 49.8787 302.048 50.018 301.801C50.1602 301.553 50.2313 301.293 50.2313 301.02V300.099C50.1886 300.15 50.0948 300.197 49.9498 300.239C49.8076 300.279 49.6426 300.315 49.4549 300.346C49.2701 300.374 49.0895 300.4 48.9132 300.423C48.7398 300.443 48.599 300.46 48.4909 300.474C48.2293 300.508 47.9847 300.564 47.7572 300.64C47.5326 300.714 47.3506 300.827 47.2113 300.977C47.0748 301.125 47.0065 301.327 47.0065 301.583C47.0065 301.933 47.1359 302.197 47.3947 302.376C47.6563 302.553 47.9876 302.641 48.3886 302.641ZM53.4891 305.849C53.3185 305.849 53.1663 305.834 53.0327 305.806C52.899 305.78 52.8066 305.755 52.7554 305.729L53.0114 304.842C53.2559 304.904 53.472 304.927 53.6597 304.91C53.8474 304.893 54.0138 304.809 54.1588 304.658C54.3067 304.511 54.4417 304.27 54.564 303.938L54.7517 303.426L52.3289 296.84H53.4209L55.2295 302.061H55.2977L57.1063 296.84H58.1983L55.4171 304.347C55.292 304.685 55.137 304.966 54.9522 305.187C54.7674 305.412 54.5527 305.578 54.3081 305.686C54.0664 305.795 53.7934 305.849 53.4891 305.849ZM64.8334 303.545C64.4182 303.545 64.0414 303.467 63.703 303.311C63.3646 303.151 63.0959 302.922 62.8968 302.624C62.6978 302.322 62.5982 301.958 62.5982 301.532C62.5982 301.156 62.6722 300.852 62.82 300.619C62.9679 300.383 63.1655 300.198 63.413 300.064C63.6604 299.931 63.9334 299.831 64.2319 299.766C64.5334 299.698 64.8362 299.644 65.1405 299.604C65.5386 299.553 65.8614 299.514 66.1088 299.489C66.359 299.46 66.541 299.413 66.6548 299.348C66.7714 299.282 66.8297 299.169 66.8297 299.007V298.972C66.8297 298.552 66.7145 298.225 66.4842 297.991C66.2567 297.758 65.9112 297.642 65.4476 297.642C64.967 297.642 64.5902 297.747 64.3173 297.957C64.0443 298.168 63.8523 298.392 63.7414 298.631L62.7859 298.29C62.9565 297.892 63.184 297.582 63.4684 297.36C63.7556 297.135 64.0684 296.979 64.4068 296.891C64.7481 296.8 65.0836 296.754 65.4135 296.754C65.6239 296.754 65.8657 296.78 66.1386 296.831C66.4145 296.879 66.6804 296.98 66.9363 297.134C67.1951 297.288 67.4098 297.519 67.5804 297.829C67.751 298.139 67.8363 298.554 67.8363 299.075V303.392H66.8297V302.504H66.7785C66.7102 302.647 66.5965 302.799 66.4372 302.961C66.278 303.123 66.0661 303.261 65.8017 303.375C65.5372 303.488 65.2144 303.545 64.8334 303.545ZM64.9869 302.641C65.3851 302.641 65.7206 302.563 65.9936 302.406C66.2695 302.25 66.4771 302.048 66.6164 301.801C66.7586 301.553 66.8297 301.293 66.8297 301.02V300.099C66.787 300.15 66.6932 300.197 66.5481 300.239C66.406 300.279 66.241 300.315 66.0533 300.346C65.8685 300.374 65.6879 300.4 65.5116 300.423C65.3381 300.443 65.1974 300.46 65.0893 300.474C64.8277 300.508 64.5831 300.564 64.3556 300.64C64.131 300.714 63.949 300.827 63.8096 300.977C63.6732 301.125 63.6049 301.327 63.6049 301.583C63.6049 301.933 63.7343 302.197 63.9931 302.376C64.2547 302.553 64.586 302.641 64.9869 302.641ZM72.5231 296.84V297.693H69.1277V296.84H72.5231ZM70.1174 295.27H71.124V301.515C71.124 301.799 71.1653 302.012 71.2477 302.155C71.333 302.294 71.4411 302.388 71.5719 302.436C71.7056 302.482 71.8463 302.504 71.9942 302.504C72.1051 302.504 72.1961 302.499 72.2672 302.487C72.3383 302.473 72.3952 302.462 72.4378 302.453L72.6426 303.357C72.5743 303.383 72.4791 303.409 72.3568 303.434C72.2345 303.463 72.0795 303.477 71.8918 303.477C71.6075 303.477 71.3288 303.416 71.0558 303.293C70.7856 303.171 70.561 302.985 70.3818 302.735C70.2055 302.484 70.1174 302.169 70.1174 301.788V295.27ZM80.4699 294.656V303.392H79.412V295.765H79.3608L77.2281 297.181V296.106L79.412 294.656H80.4699ZM82.9823 303.392V302.624L85.8658 299.467C86.2042 299.098 86.4829 298.776 86.7019 298.503C86.9209 298.227 87.0829 297.969 87.1882 297.727C87.2962 297.482 87.3503 297.226 87.3503 296.959C87.3503 296.652 87.2763 296.386 87.1284 296.161C86.9834 295.937 86.7844 295.763 86.5313 295.641C86.2782 295.519 85.9938 295.458 85.6782 295.458C85.3426 295.458 85.0497 295.527 84.7994 295.667C84.552 295.803 84.3601 295.995 84.2236 296.243C84.0899 296.49 84.0231 296.78 84.0231 297.113H83.0164C83.0164 296.601 83.1344 296.152 83.3705 295.765C83.6065 295.378 83.9278 295.077 84.3345 294.86C84.744 294.644 85.2033 294.536 85.7123 294.536C86.2241 294.536 86.6777 294.644 87.073 294.86C87.4683 295.077 87.7782 295.368 88.0029 295.735C88.2275 296.102 88.3399 296.51 88.3399 296.959C88.3399 297.28 88.2816 297.595 88.165 297.902C88.0512 298.206 87.8522 298.546 87.5678 298.921C87.2863 299.294 86.8953 299.749 86.3948 300.286L84.4326 302.385V302.453H88.4934V303.392H82.9823ZM91.0058 302.274C90.7954 302.274 90.6148 302.199 90.4641 302.048C90.3134 301.897 90.238 301.717 90.238 301.506C90.238 301.296 90.3134 301.115 90.4641 300.964C90.6148 300.814 90.7954 300.738 91.0058 300.738C91.2163 300.738 91.3969 300.814 91.5476 300.964C91.6983 301.115 91.7737 301.296 91.7737 301.506C91.7737 301.646 91.7381 301.774 91.667 301.89C91.5988 302.007 91.5063 302.101 91.3897 302.172C91.276 302.24 91.148 302.274 91.0058 302.274ZM91.0058 297.855C90.7954 297.855 90.6148 297.78 90.4641 297.629C90.3134 297.478 90.238 297.298 90.238 297.087C90.238 296.877 90.3134 296.696 90.4641 296.545C90.6148 296.395 90.7954 296.319 91.0058 296.319C91.2163 296.319 91.3969 296.395 91.5476 296.545C91.6983 296.696 91.7737 296.877 91.7737 297.087C91.7737 297.226 91.7381 297.354 91.667 297.471C91.5988 297.588 91.5063 297.681 91.3897 297.753C91.276 297.821 91.148 297.855 91.0058 297.855ZM93.5631 303.392V302.624L96.4466 299.467C96.785 299.098 97.0637 298.776 97.2826 298.503C97.5016 298.227 97.6637 297.969 97.7689 297.727C97.877 297.482 97.931 297.226 97.931 296.959C97.931 296.652 97.8571 296.386 97.7092 296.161C97.5642 295.937 97.3651 295.763 97.112 295.641C96.8589 295.519 96.5745 295.458 96.2589 295.458C95.9233 295.458 95.6304 295.527 95.3802 295.667C95.1328 295.803 94.9408 295.995 94.8043 296.243C94.6707 296.49 94.6039 296.78 94.6039 297.113H93.5972C93.5972 296.601 93.7152 296.152 93.9512 295.765C94.1872 295.378 94.5086 295.077 94.9152 294.86C95.3247 294.644 95.784 294.536 96.293 294.536C96.8049 294.536 97.2585 294.644 97.6537 294.86C98.049 295.077 98.359 295.368 98.5836 295.735C98.8083 296.102 98.9206 296.51 98.9206 296.959C98.9206 297.28 98.8623 297.595 98.7457 297.902C98.632 298.206 98.4329 298.546 98.1485 298.921C97.867 299.294 97.476 299.749 96.9755 300.286L95.0133 302.385V302.453H99.0742V303.392H93.5631ZM100.443 301.6V300.73L104.282 294.656H104.914V296.004H104.487L101.587 300.593V300.662H106.756V301.6H100.443ZM104.555 303.392V301.336V300.93V294.656H105.562V303.392H104.555Z" fill="#221F1F"/>
<path d="M213.206 299.747C213.206 297.605 213.782 295.958 215.883 295.958C217.983 295.958 218.56 297.605 218.56 299.747C218.56 301.93 217.983 303.577 215.883 303.577C213.782 303.577 213.206 301.93 213.206 299.747ZM217.407 299.747C217.407 298.347 217.252 297.029 215.883 297.029C214.513 297.029 214.359 298.347 214.359 299.747C214.359 301.219 214.513 302.506 215.883 302.506C217.252 302.506 217.407 301.219 217.407 299.747ZM221.463 303.598V297.163H220.505V296.092H222.647V303.598H221.463ZM226.486 302.918C226.486 303.34 226.157 303.67 225.745 303.67C225.323 303.67 224.994 303.34 224.994 302.918C224.994 302.496 225.323 302.167 225.745 302.167C226.157 302.167 226.486 302.496 226.486 302.918ZM226.486 298.594C226.486 299.016 226.157 299.345 225.745 299.345C225.323 299.345 224.994 299.016 224.994 298.594C224.994 298.172 225.323 297.842 225.745 297.842C226.157 297.842 226.486 298.172 226.486 298.594ZM228.406 303.495V302.64C230.177 301.085 232.041 299.726 232.041 298.254C232.041 297.472 231.701 296.936 230.826 296.936C230.002 296.936 229.559 297.513 229.528 298.357H228.396C228.437 296.73 229.487 295.938 230.815 295.938C232.339 295.938 233.204 296.854 233.204 298.203C233.204 300.025 231.351 301.415 230.146 302.517H233.41V303.495H228.406ZM238.882 303.598V302.033H235.155V301.147L238.614 296.185H240.035V301.013H240.993V302.033H240.035V303.598H238.882ZM236.504 301.013H238.933V297.379L236.504 301.013Z" fill="#221F1F"/>
<circle cx="255.48" cy="299.495" r="8.57989" fill="#EBEBEB" stroke="#EBEBEB" stroke-width="1.71598" stroke-linecap="round" stroke-linejoin="round"/>
<path fill-rule="evenodd" clip-rule="evenodd" d="M253.764 296.062L258.912 299.494L253.764 302.926V296.062Z" fill="#808C9C" stroke="#808C9C" stroke-width="1.71598" stroke-linecap="round" stroke-linejoin="round"/>
<rect x="10.8633" y="324.075" width="235.575" height="3.43195" rx="1.71598" fill="#EBEBEB"/>
<rect x="10.8633" y="324.075" width="92.1244" height="3.43195" rx="1.71598" fill="#57DAA3"/>
<rect x="112.857" y="324.075" width="39.4819" height="3.43195" rx="1.71598" fill="#C4C4C4"/>
<rect x="162.211" y="324.075" width="34.2176" height="3.43195" rx="1.71598" fill="#57DAA3"/>
<rect x="206.299" y="324.075" width="13.1606" height="3.43195" rx="1.71598" fill="#C4C4C4"/>
<rect x="0.960938" y="348.446" width="273" height="63.5439" rx="8" fill="white"/>
<circle cx="255.48" cy="369.039" r="8.57989" fill="#EBEBEB" stroke="#EBEBEB" stroke-width="1.71598" stroke-linecap="round" stroke-linejoin="round"/>
</g>
<defs>
<clipPath id="clip0_266_46903">
<rect width="273" height="361" fill="white" transform="translate(0.960938 0.726562)"/>
</clipPath>
</defs>
</svg>
