<svg width="20" height="20" viewBox="0 0 20 20" fill="none" xmlns="http://www.w3.org/2000/svg">
<path fill-rule="evenodd" clip-rule="evenodd" d="M10.8336 2.50002C10.8336 2.03978 10.4605 1.66669 10.0003 1.66669C9.54005 1.66669 9.16696 2.03978 9.16696 2.50002V2.97574C6.34019 3.37996 4.16696 5.81022 4.16696 8.74911L4.16696 12.0828C4.16696 12.0828 4.16696 12.0826 4.16696 12.0828C4.16688 12.0844 4.16631 12.0955 4.1627 12.1174C4.15836 12.1437 4.15066 12.1794 4.13794 12.2253C4.11217 12.3183 4.07115 12.4342 4.01385 12.5713C3.89896 12.846 3.73699 13.1622 3.55787 13.4813C3.22108 14.0813 3.05131 14.7962 3.17876 15.4761C3.31317 16.193 3.77466 16.8183 4.56284 17.1184C5.26693 17.3865 6.20415 17.6316 7.44184 17.7775C7.47129 17.8031 7.50611 17.8323 7.54612 17.8643C7.67136 17.9645 7.85029 18.0943 8.07642 18.2236C8.52523 18.48 9.18881 18.75 10.0003 18.75C10.8118 18.75 11.4753 18.48 11.9242 18.2236C12.1503 18.0943 12.3292 17.9645 12.4545 17.8643C12.4945 17.8323 12.5293 17.8031 12.5587 17.7775C13.7964 17.6316 14.7336 17.3865 15.4377 17.1184C16.2259 16.8183 16.6874 16.193 16.8218 15.4761C16.9493 14.7962 16.7795 14.0813 16.4427 13.4813C16.2636 13.1622 16.1016 12.846 15.9867 12.5713C15.9294 12.4342 15.8884 12.3183 15.8626 12.2253C15.8499 12.1794 15.8422 12.1437 15.8379 12.1174C15.8343 12.0955 15.8337 12.0846 15.8336 12.083C15.8336 12.0828 15.8336 12.083 15.8336 12.083L15.8336 12.0759V8.74951C15.8336 5.81069 13.6605 3.38003 10.8336 2.97575V2.50002ZM5.83362 8.74911C5.83362 6.44812 7.69891 4.58335 10.0003 4.58335C12.3016 4.58335 14.167 6.44843 14.167 8.74951V12.0834C14.167 12.4691 14.3115 12.8852 14.4491 13.2143C14.5986 13.5718 14.7945 13.95 14.9894 14.2972C15.1789 14.6347 15.224 14.9537 15.1837 15.169C15.1503 15.3472 15.0612 15.4783 14.8447 15.5608C13.949 15.9019 12.4369 16.25 10.0003 16.25C7.56368 16.25 6.05163 15.9019 5.15591 15.5608C4.93936 15.4783 4.8503 15.3472 4.81689 15.169C4.77654 14.9537 4.82172 14.6347 5.0112 14.2972C5.20607 13.95 5.40198 13.5718 5.55147 13.2143C5.68908 12.8852 5.83362 12.4691 5.83362 12.0834V8.74911Z" fill="#344054"/>
</svg>
