<svg width="25" height="25" viewBox="0 0 25 25" fill="none" xmlns="http://www.w3.org/2000/svg">
<rect x="0.832031" y="1.30664" width="23" height="23" rx="5.5" fill="white"/>
<rect x="0.832031" y="1.30664" width="23" height="23" rx="5.5" stroke="#F0F2F5"/>
<path fill-rule="evenodd" clip-rule="evenodd" d="M14.666 6.13965C13.7455 6.13965 12.9993 6.88584 12.9993 7.80631V17.8063C12.9993 18.7268 13.7455 19.473 14.666 19.473H17.3327C18.2532 19.473 18.9993 18.7268 18.9993 17.8063V7.80632C18.9993 6.88584 18.2532 6.13965 17.3327 6.13965H14.666ZM14.3327 7.80631C14.3327 7.62222 14.4819 7.47298 14.666 7.47298H17.3327C17.5168 7.47298 17.666 7.62222 17.666 7.80632V17.8063C17.666 17.9904 17.5168 18.1396 17.3327 18.1396H14.666C14.4819 18.1396 14.3327 17.9904 14.3327 17.8063V7.80631Z" fill="#505BC5"/>
<path fill-rule="evenodd" clip-rule="evenodd" d="M7.33268 12.1396C6.41221 12.1396 5.66602 12.8858 5.66602 13.8063V17.8063C5.66602 18.7268 6.41221 19.473 7.33268 19.473H9.99935C10.9198 19.473 11.666 18.7268 11.666 17.8063V13.8063C11.666 12.8858 10.9198 12.1396 9.99935 12.1396H7.33268ZM6.99935 13.8063C6.99935 13.6222 7.14859 13.473 7.33268 13.473H9.99935C10.1834 13.473 10.3327 13.6222 10.3327 13.8063V17.8063C10.3327 17.9904 10.1834 18.1396 9.99935 18.1396H7.33268C7.14859 18.1396 6.99935 17.9904 6.99935 17.8063V13.8063Z" fill="#505BC5"/>
</svg>
