<svg width="21" height="20" viewBox="0 0 21 20" fill="none" xmlns="http://www.w3.org/2000/svg">
<path d="M4.48047 14.5833C4.48047 14.1231 4.85356 13.75 5.3138 13.75H11.1471C11.6074 13.75 11.9805 14.1231 11.9805 14.5833C11.9805 15.0436 11.6074 15.4167 11.1471 15.4167H5.3138C4.85356 15.4167 4.48047 15.0436 4.48047 14.5833Z" fill="#98A2B3"/>
<path d="M13.6471 13.75C13.1869 13.75 12.8138 14.1231 12.8138 14.5833C12.8138 15.0436 13.1869 15.4167 13.6471 15.4167H15.3138C15.774 15.4167 16.1471 15.0436 16.1471 14.5833C16.1471 14.1231 15.774 13.75 15.3138 13.75H13.6471Z" fill="#98A2B3"/>
<path fill-rule="evenodd" clip-rule="evenodd" d="M6.98047 1.25C7.44071 1.25 7.8138 1.6231 7.8138 2.08333V2.91667H12.8138V2.08333C12.8138 1.6231 13.1869 1.25 13.6471 1.25C14.1074 1.25 14.4805 1.6231 14.4805 2.08333V2.91667H15.3138C17.1548 2.91667 18.6471 4.40905 18.6471 6.25V15.4167C18.6471 17.2576 17.1548 18.75 15.3138 18.75H5.3138C3.47285 18.75 1.98047 17.2576 1.98047 15.4167V6.25C1.98047 4.40905 3.47285 2.91667 5.3138 2.91667H6.14714V2.08333C6.14714 1.6231 6.52023 1.25 6.98047 1.25ZM12.8138 4.58333C12.8138 5.04357 13.1869 5.41667 13.6471 5.41667C14.1074 5.41667 14.4805 5.04357 14.4805 4.58333H15.3138C16.2343 4.58333 16.9805 5.32953 16.9805 6.25V6.66667H3.64714V6.25C3.64714 5.32953 4.39333 4.58333 5.3138 4.58333H6.14714C6.14714 5.04357 6.52023 5.41667 6.98047 5.41667C7.44071 5.41667 7.8138 5.04357 7.8138 4.58333H12.8138ZM16.9805 8.33333H3.64714V15.4167C3.64714 16.3371 4.39333 17.0833 5.3138 17.0833H15.3138C16.2343 17.0833 16.9805 16.3371 16.9805 15.4167V8.33333Z" fill="#98A2B3"/>
</svg>
