<svg width="26" height="26" viewBox="0 0 26 26" fill="none" xmlns="http://www.w3.org/2000/svg">
<path d="M6.35536 6.14785C6.50649 5.99691 6.71135 5.91212 6.92495 5.91212C7.13855 5.91212 7.34342 5.99691 7.49455 6.14785L13.1046 11.7579L18.7146 6.14785C18.8131 6.04175 18.9384 5.96419 19.0773 5.92333C19.2162 5.88248 19.3636 5.87985 19.5038 5.91571C19.6441 5.95158 19.7721 6.02462 19.8744 6.12713C19.9766 6.22965 20.0493 6.35784 20.0848 6.49821C20.1207 6.63833 20.1182 6.78553 20.0776 6.92434C20.0369 7.06316 19.9596 7.18845 19.8537 7.28705L14.2437 12.897L19.8537 18.507C19.9598 18.6056 20.0374 18.7309 20.0783 18.8698C20.1191 19.0087 20.1218 19.156 20.0859 19.2963C20.05 19.4366 19.977 19.5646 19.8745 19.6669C19.772 19.7691 19.6438 19.8418 19.5034 19.8773C19.3633 19.9132 19.2161 19.9107 19.0773 19.8701C18.9384 19.8294 18.8131 19.7521 18.7146 19.6462L13.1046 14.0362L7.49455 19.6462C7.34166 19.7885 7.13956 19.866 6.93072 19.8624C6.72189 19.8588 6.52259 19.7744 6.3747 19.6269C6.2272 19.479 6.14278 19.2797 6.13917 19.0709C6.13556 18.862 6.21305 18.6599 6.35536 18.507L11.9654 12.897L6.35536 7.28705C6.20441 7.13592 6.11963 6.93105 6.11963 6.71745C6.11963 6.50385 6.20441 6.29898 6.35536 6.14785Z" fill="#212121"/>
</svg>
