<svg width="20" height="20" viewBox="0 0 20 20" fill="none" xmlns="http://www.w3.org/2000/svg">
<path d="M13.9226 11.4225L10.5893 14.7559C10.2638 15.0813 9.7362 15.0813 9.41077 14.7559L6.07743 11.4225C5.75199 11.0971 5.75199 10.5695 6.07743 10.244C6.40287 9.9186 6.93051 9.9186 7.25594 10.244L9.16669 12.1548V2.49996C9.16669 2.03972 9.53978 1.66663 10 1.66663C10.4603 1.66663 10.8334 2.03972 10.8334 2.49996V12.1548L12.7441 10.244C13.0695 9.9186 13.5972 9.9186 13.9226 10.244C14.248 10.5695 14.248 11.0971 13.9226 11.4225Z" fill="#344054"/>
<path d="M3.33335 14.5833C3.33335 14.1231 2.96026 13.75 2.50002 13.75C2.03978 13.75 1.66669 14.1231 1.66669 14.5833V15.8333C1.66669 17.6742 3.15907 19.1666 5.00002 19.1666H15C16.841 19.1666 18.3334 17.6742 18.3334 15.8333V14.5833C18.3334 14.1231 17.9603 13.75 17.5 13.75C17.0398 13.75 16.6667 14.1231 16.6667 14.5833V15.8333C16.6667 16.7538 15.9205 17.5 15 17.5H5.00002C4.07955 17.5 3.33335 16.7538 3.33335 15.8333V14.5833Z" fill="#344054"/>
</svg>
