<svg width="21" height="20" viewBox="0 0 21 20" fill="none" xmlns="http://www.w3.org/2000/svg">
<path fill-rule="evenodd" clip-rule="evenodd" d="M16.1487 17.5C17.9896 17.5 19.482 16.0076 19.482 14.1667V6.68557C19.4823 6.67283 19.4823 6.66005 19.482 6.64725V5.83333C19.482 3.99238 17.9896 2.5 16.1487 2.5H4.48199C2.64104 2.5 1.14866 3.99238 1.14866 5.83333V6.64726C1.14836 6.66005 1.14836 6.67282 1.14866 6.68556V14.1667C1.14866 16.0076 2.64104 17.5 4.48199 17.5H16.1487ZM2.81533 14.1667C2.81533 15.0871 3.56152 15.8333 4.48199 15.8333H16.1487C17.0691 15.8333 17.8153 15.0871 17.8153 14.1667V7.89753L11.5533 10.4023C10.7586 10.7202 9.87206 10.7202 9.07736 10.4023L2.81533 7.89753V14.1667ZM10.9343 8.85488L17.8153 6.10247V5.83333C17.8153 4.91286 17.0691 4.16667 16.1487 4.16667H4.48199C3.56152 4.16667 2.81533 4.91286 2.81533 5.83333V6.10247L9.69634 8.85488C10.0937 9.01382 10.537 9.01382 10.9343 8.85488Z" fill="#98A2B3"/>
</svg>
