<svg width="18" height="17" viewBox="0 0 18 17" fill="none" xmlns="http://www.w3.org/2000/svg">
<path d="M17.4563 2.84375C17.3612 2.78889 17.2535 2.76002 17.1438 2.76002C17.034 2.76002 16.9263 2.78889 16.8313 2.84375L11.5 5.4875V3.375C11.4997 3.26846 11.4721 3.16377 11.42 3.07087C11.3678 2.97798 11.2927 2.89996 11.2019 2.84423C11.1111 2.78849 11.0076 2.7569 10.9012 2.75244C10.7947 2.74798 10.6889 2.77081 10.5938 2.81875L5.25 5.4875V0.875C5.25 0.70924 5.18415 0.550268 5.06694 0.433058C4.94973 0.315848 4.79076 0.25 4.625 0.25H0.875C0.70924 0.25 0.550268 0.315848 0.433058 0.433058C0.315848 0.550268 0.25 0.70924 0.25 0.875V16.5H17.75V3.375C17.7502 3.26878 17.7234 3.16427 17.672 3.07132C17.6206 2.97836 17.5463 2.90004 17.4563 2.84375ZM12.75 15.25H10.25V10.875H12.75V15.25ZM16.5 15.25H14V10.25C14 10.0842 13.9342 9.92527 13.8169 9.80806C13.6997 9.69085 13.5408 9.625 13.375 9.625H9.625C9.45924 9.625 9.30027 9.69085 9.18306 9.80806C9.06585 9.92527 9 10.0842 9 10.25V15.25H1.5V1.5H4V7.5125L10.25 4.3875V7.5125L16.5 4.3875V15.25Z" fill="#98A2B3"/>
</svg>
