<svg width="21" height="20" viewBox="0 0 21 20" fill="none" xmlns="http://www.w3.org/2000/svg">
<path fill-rule="evenodd" clip-rule="evenodd" d="M8.54251 2.33959C7.24076 1.03784 5.13021 1.03785 3.82846 2.33959L3.38218 2.78587C2.76688 3.40118 2.34602 4.32324 2.58607 5.32207C2.95408 6.85333 4.0615 9.64369 7.364 12.9462C10.6665 16.2487 13.4569 17.3561 14.9881 17.7241C15.987 17.9642 16.909 17.5433 17.5243 16.928L17.9706 16.4817C19.2723 15.18 19.2723 13.0694 17.9706 11.7677L17.1965 10.9936C16.1355 9.93257 14.4963 9.71128 13.1918 10.453L13.1114 10.4988C12.5769 10.8027 11.9628 10.7779 11.5278 10.463C11.1767 10.209 10.8413 9.94164 10.6049 9.70529C10.3685 9.46894 10.1012 9.13345 9.84717 8.78242C9.53234 8.3474 9.50749 7.73333 9.81144 7.1988L9.85718 7.11835C10.5989 5.81394 10.3776 4.17471 9.31657 3.11366L8.54251 2.33959ZM5.00697 3.5181C5.65785 2.86723 6.71312 2.86723 7.364 3.5181L8.13806 4.29217C8.66859 4.82269 8.77923 5.64231 8.40837 6.29452L8.36262 6.37496C7.7752 7.40801 7.75459 8.73374 8.49699 9.75956C8.76968 10.1364 9.0974 10.5548 9.42639 10.8838C9.75538 11.2128 10.1738 11.5405 10.5506 11.8132C11.5765 12.5556 12.9022 12.535 13.9352 11.9476L14.0157 11.9018C14.6679 11.531 15.4875 11.6416 16.018 12.1721L16.7921 12.9462C17.443 13.5971 17.443 14.6523 16.7921 15.3032L16.3458 15.7495C16.0234 16.0719 15.6681 16.1734 15.3776 16.1036C14.1534 15.8094 11.6339 14.8591 8.54251 11.7677C5.45111 8.67629 4.50081 6.15681 4.2066 4.93261C4.13677 4.64207 4.23832 4.28676 4.5607 3.96438L5.00697 3.5181Z" fill="#98A2B3"/>
</svg>
