<svg width="20" height="20" viewBox="0 0 20 20" fill="none" xmlns="http://www.w3.org/2000/svg">
<path d="M10.8334 7.49996C10.8334 7.03972 10.4603 6.66663 10 6.66663C9.53978 6.66663 9.16669 7.03972 9.16669 7.49996V9.16663H7.50002C7.03978 9.16663 6.66669 9.53972 6.66669 9.99996C6.66669 10.4602 7.03978 10.8333 7.50002 10.8333H9.16669V12.5C9.16669 12.9602 9.53978 13.3333 10 13.3333C10.4603 13.3333 10.8334 12.9602 10.8334 12.5V10.8333H12.5C12.9603 10.8333 13.3334 10.4602 13.3334 9.99996C13.3334 9.53972 12.9603 9.16663 12.5 9.16663H10.8334V7.49996Z" fill="white"/>
<path fill-rule="evenodd" clip-rule="evenodd" d="M10 1.66663C5.39765 1.66663 1.66669 5.39759 1.66669 9.99996C1.66669 14.6023 5.39765 18.3333 10 18.3333C14.6024 18.3333 18.3334 14.6023 18.3334 9.99996C18.3334 5.39759 14.6024 1.66663 10 1.66663ZM3.33335 9.99996C3.33335 6.31806 6.31812 3.33329 10 3.33329C13.6819 3.33329 16.6667 6.31806 16.6667 9.99996C16.6667 13.6819 13.6819 16.6666 10 16.6666C6.31812 16.6666 3.33335 13.6819 3.33335 9.99996Z" fill="white"/>
</svg>
