<svg width="32" height="32" viewBox="0 0 32 32" fill="none" xmlns="http://www.w3.org/2000/svg">
<rect width="32" height="32" rx="16" fill="#D8D8D8"/>
<path d="M25.5407 15.6057L19.609 12.9996C18.526 12.5239 16.7536 11.7453 15.6707 11.2694L9.73899 8.66327C8.65581 8.18756 8.1717 8.62405 8.66273 9.6333C8.66273 9.6333 11.1226 14.703 11.6036 15.2217C11.7138 15.3407 12.4774 15.4466 12.9231 15.5014L18.855 16.2292C19.3965 16.2957 19.6673 16.3832 19.6673 16.4707C19.6673 16.5582 19.3965 16.6458 18.855 16.7122L12.9231 17.4401C12.4774 17.4948 11.7141 17.6007 11.6036 17.7197C11.1224 18.2382 8.66273 23.3081 8.66273 23.3081C8.17147 24.3174 8.65581 24.7541 9.73899 24.2782L15.6709 21.6721C16.7539 21.1964 18.526 20.4178 19.6092 19.9418L25.5409 17.3357C26.0824 17.0978 26.3531 16.7842 26.3531 16.4707C26.3531 16.1572 26.0824 15.8435 25.5409 15.6057H25.5407Z" fill="white"/>
</svg>
