<svg width="20" height="20" viewBox="0 0 20 20" fill="none" xmlns="http://www.w3.org/2000/svg">
<path d="M6.24999 3.33332C6.71023 3.33332 7.08332 2.96023 7.08332 2.49999C7.08332 2.03975 6.71023 1.66666 6.24999 1.66666H4.99999C3.15904 1.66666 1.66666 3.15904 1.66666 4.99999V15C1.66666 16.8409 3.15904 18.3333 4.99999 18.3333H6.24999C6.71023 18.3333 7.08332 17.9602 7.08332 17.5C7.08332 17.0398 6.71023 16.6667 6.24999 16.6667H4.99999C4.07952 16.6667 3.33332 15.9205 3.33332 15L3.33332 4.99999C3.33332 4.07952 4.07952 3.33332 4.99999 3.33332H6.24999Z" fill="black"/>
<path d="M18.9226 10.5892C19.248 10.2638 19.248 9.73617 18.9226 9.41073L15.5892 6.0774C15.2638 5.75196 14.7362 5.75196 14.4107 6.0774C14.0853 6.40284 14.0853 6.93048 14.4107 7.25591L16.3215 9.16666L6.66666 9.16666C6.20642 9.16666 5.83332 9.53975 5.83332 9.99999C5.83332 10.4602 6.20642 10.8333 6.66666 10.8333L16.3215 10.8333L14.4107 12.7441C14.0853 13.0695 14.0853 13.5971 14.4107 13.9226C14.7362 14.248 15.2638 14.248 15.5892 13.9226L18.9226 10.5892Z" fill="black"/>
</svg>
