<svg width="21" height="20" viewBox="0 0 21 20" fill="none" xmlns="http://www.w3.org/2000/svg">
<path fill-rule="evenodd" clip-rule="evenodd" d="M10.3151 0.833008C5.25249 0.833008 1.14844 4.93706 1.14844 9.99967C1.14844 15.0623 5.25249 19.1663 10.3151 19.1663C15.3777 19.1663 19.4818 15.0623 19.4818 9.99967C19.4818 4.93706 15.3777 0.833008 10.3151 0.833008ZM3.78121 9.41826L2.81574 9.90099C2.83828 8.15321 3.45866 6.54958 4.48177 5.28523V6.96629L3.78121 9.41826ZM6.14844 3.76263C7.34019 2.9649 8.77331 2.49967 10.3151 2.49967C14.3441 2.49967 17.631 5.67656 17.8076 9.66196L14.9358 12.5338L14.5279 16.2056C13.3271 17.0223 11.8768 17.4997 10.3151 17.4997C6.74753 17.4997 3.76174 15.0088 3.00206 11.6712L5.18233 10.5811L5.49613 9.48279C5.37631 10.1742 5.69934 10.9152 6.39322 11.2621L8.26538 12.1982L8.46087 15.1306C8.57163 16.792 10.7818 17.2819 11.5842 15.8229L14.6124 10.3171C14.8448 9.89464 14.8828 9.39223 14.7166 8.9396L14.0167 7.03291C13.7389 6.27602 12.9591 5.82654 12.1649 5.9655L8.34756 6.63342C8.0099 6.6925 7.69868 6.85425 7.4563 7.09664L5.96006 8.59287C5.7953 8.75763 5.67352 8.94554 5.59277 9.14456L6.14844 7.19972V3.76263ZM16.5277 13.2989L17.4208 12.4058C17.1806 13.1153 16.8372 13.7772 16.4083 14.3736L16.5277 13.2989ZM9.01073 10.7075L7.13857 9.77138L8.63481 8.27515L12.4521 7.60723L13.152 9.51392L10.1238 15.0197L9.92835 12.0873C9.889 11.4971 9.53979 10.972 9.01073 10.7075Z" fill="#98A2B3"/>
</svg>
