<svg width="20" height="20" viewBox="0 0 20 20" fill="none" xmlns="http://www.w3.org/2000/svg">
<path fill-rule="evenodd" clip-rule="evenodd" d="M11.6663 2.5C8.90487 2.5 6.66629 4.73858 6.66629 7.5C6.66629 10.2614 8.90487 12.5 11.6663 12.5C14.4277 12.5 16.6663 10.2614 16.6663 7.5C16.6663 4.73858 14.4277 2.5 11.6663 2.5ZM8.33296 7.5C8.33296 5.65905 9.82534 4.16667 11.6663 4.16667C13.5072 4.16667 14.9996 5.65905 14.9996 7.5C14.9996 9.34095 13.5072 10.8333 11.6663 10.8333C9.82534 10.8333 8.33296 9.34095 8.33296 7.5Z" fill="#98A2B3"/>
<path d="M6.79579 17.106C6.55316 17.4971 6.03942 17.6174 5.64834 17.3748C5.25726 17.1321 5.13692 16.6184 5.37956 16.2273C6.52073 14.388 8.85529 12.5 11.6663 12.5C14.4773 12.5 16.8119 14.388 17.953 16.2273C18.1957 16.6184 18.0753 17.1321 17.6843 17.3748C17.2932 17.6174 16.7795 17.4971 16.5368 17.106C15.6017 15.5988 13.7366 14.1667 11.6663 14.1667C9.59602 14.1667 7.73092 15.5988 6.79579 17.106Z" fill="#98A2B3"/>
<path d="M6.58117 5.46643C6.78381 5.87966 6.61309 6.37891 6.19986 6.58155C5.44264 6.95287 4.99963 7.62649 4.99963 8.33333C4.99963 9.04017 5.44264 9.7138 6.19986 10.0851C6.61309 10.2878 6.78381 10.787 6.58117 11.2002C6.37854 11.6135 5.87928 11.7842 5.46606 11.5815C4.23539 10.9781 3.33296 9.77794 3.33296 8.33333C3.33296 6.88872 4.23539 5.6886 5.46606 5.08512C5.87928 4.88248 6.37854 5.0532 6.58117 5.46643Z" fill="#98A2B3"/>
<path d="M3.46246 17.106C3.21982 17.4971 2.70609 17.6174 2.31501 17.3748C1.92393 17.1321 1.80359 16.6184 2.04623 16.2273C2.52881 15.4495 3.30092 14.8003 4.16232 14.2966C4.55962 14.0643 5.07003 14.198 5.30234 14.5953C5.53466 14.9926 5.40092 15.503 5.00362 15.7354C4.28386 16.1562 3.7543 16.6356 3.46246 17.106Z" fill="#98A2B3"/>
</svg>
