<svg width="2" height="14" viewBox="0 0 2 14" fill="none" xmlns="http://www.w3.org/2000/svg">
<path d="M2 1.66663C2 2.21891 1.55228 2.66663 1 2.66663C0.447715 2.66663 0 2.21891 0 1.66663C0 1.11434 0.447715 0.666626 1 0.666626C1.55228 0.666626 2 1.11434 2 1.66663Z" fill="black"/>
<path d="M2 6.99996C2 7.55224 1.55228 7.99996 1 7.99996C0.447715 7.99996 0 7.55224 0 6.99996C0 6.44767 0.447715 5.99996 1 5.99996C1.55228 5.99996 2 6.44767 2 6.99996Z" fill="black"/>
<path d="M1 13.3333C1.55228 13.3333 2 12.8856 2 12.3333C2 11.781 1.55228 11.3333 1 11.3333C0.447715 11.3333 0 11.781 0 12.3333C0 12.8856 0.447715 13.3333 1 13.3333Z" fill="black"/>
</svg>
