<svg width="20" height="20" viewBox="0 0 20 20" fill="none" xmlns="http://www.w3.org/2000/svg">
<path fill-rule="evenodd" clip-rule="evenodd" d="M11.667 1.66675C9.82604 1.66675 8.33366 3.15913 8.33366 5.00008V6.66675H5.00033C3.15938 6.66675 1.66699 8.15913 1.66699 10.0001V15.0001C1.66699 16.841 3.15938 18.3334 5.00033 18.3334H8.33366C10.1746 18.3334 11.667 16.841 11.667 15.0001V13.3334H15.0003C16.8413 13.3334 18.3337 11.841 18.3337 10.0001V5.00008C18.3337 3.15913 16.8413 1.66675 15.0003 1.66675H11.667ZM11.667 11.6667H15.0003C15.9208 11.6667 16.667 10.9206 16.667 10.0001V5.00008C16.667 4.07961 15.9208 3.33341 15.0003 3.33341H11.667C10.7465 3.33341 10.0003 4.07961 10.0003 5.00008V7.11269C10.9967 7.68904 11.667 8.76628 11.667 10.0001V11.6667ZM3.33366 10.0001C3.33366 9.07961 4.07985 8.33342 5.00033 8.33342H8.33366C9.25413 8.33342 10.0003 9.07961 10.0003 10.0001V15.0001C10.0003 15.9206 9.25413 16.6667 8.33366 16.6667H5.00033C4.07985 16.6667 3.33366 15.9206 3.33366 15.0001V10.0001Z" fill="currentColor"/>
</svg>
