<svg width="20" height="20" viewBox="0 0 20 20" fill="none" xmlns="http://www.w3.org/2000/svg">
<path fill-rule="evenodd" clip-rule="evenodd" d="M11.9121 1.98757C10.7644 1.18416 9.23675 1.18416 8.08902 1.98757L2.3577 5.99949C1.39219 6.67535 0.855336 7.81083 0.945728 8.98592L1.53324 16.6236C1.64405 18.0641 2.94922 19.1111 4.37943 18.9068L7.02078 18.5294C8.2524 18.3535 9.16722 17.2987 9.16722 16.0545V15C9.16722 14.5398 9.54032 14.1667 10.0006 14.1667C10.4608 14.1667 10.8339 14.5398 10.8339 15V16.0545C10.8339 17.2987 11.7487 18.3535 12.9803 18.5294L15.6217 18.9068C17.0519 19.1111 18.3571 18.0641 18.4679 16.6236L19.0554 8.98592C19.1458 7.81083 18.6089 6.67535 17.6434 5.99949L11.9121 1.98757ZM9.04479 3.35296C9.61865 2.95125 10.3825 2.95125 10.9563 3.35296L16.6876 7.36488C17.1704 7.70281 17.4388 8.27055 17.3936 8.85809L16.8061 16.4958C16.7692 16.976 16.3341 17.3249 15.8574 17.2568L13.216 16.8795C12.8055 16.8209 12.5006 16.4693 12.5006 16.0545V15C12.5006 13.6193 11.3813 12.5 10.0006 12.5C8.61985 12.5 7.50056 13.6193 7.50056 15V16.0545C7.50056 16.4693 7.19562 16.8209 6.78508 16.8795L4.14373 17.2568C3.667 17.3249 3.23194 16.976 3.195 16.4958L2.60749 8.85809C2.56229 8.27055 2.83072 7.70281 3.31347 7.36488L9.04479 3.35296Z" fill="currentColor"/>
</svg>
