<svg width="19" height="15" viewBox="0 0 19 15" fill="none" xmlns="http://www.w3.org/2000/svg">
<path fill-rule="evenodd" clip-rule="evenodd" d="M9.8397 0.166626C7.99875 0.166626 6.50637 1.65901 6.50637 3.49996C6.50637 5.34091 7.99875 6.83329 9.8397 6.83329C11.6807 6.83329 13.173 5.34091 13.173 3.49996C13.173 1.65901 11.6807 0.166626 9.8397 0.166626ZM8.17304 3.49996C8.17304 2.57949 8.91923 1.83329 9.8397 1.83329C10.7602 1.83329 11.5064 2.57949 11.5064 3.49996C11.5064 4.42043 10.7602 5.16663 9.8397 5.16663C8.91923 5.16663 8.17304 4.42043 8.17304 3.49996Z" fill="currentColor"/>
<path fill-rule="evenodd" clip-rule="evenodd" d="M9.8397 14.3333C8.8923 14.3333 7.52626 14.1094 6.48957 13.633C5.98104 13.3993 5.43539 13.0526 5.11353 12.534C4.94362 12.2603 4.83627 11.9376 4.83979 11.5784C4.84326 11.2226 4.95483 10.8852 5.13753 10.576C5.97292 9.16223 7.70599 7.66663 9.8397 7.66663C11.9734 7.66663 13.7065 9.16223 14.5419 10.576C14.7246 10.8852 14.8361 11.2226 14.8396 11.5784C14.8431 11.9376 14.7358 12.2603 14.5659 12.534C14.244 13.0526 13.6984 13.3993 13.1898 13.633C12.1531 14.1094 10.7871 14.3333 9.8397 14.3333ZM6.57242 11.4239C6.50859 11.5319 6.50646 11.5855 6.50637 11.5947C6.5063 11.6007 6.5061 11.6172 6.52963 11.6552C6.5958 11.7618 6.78795 11.9359 7.18552 12.1186C7.96104 12.4749 9.0804 12.6666 9.8397 12.6666C10.599 12.6666 11.7184 12.4749 12.4939 12.1186C12.8915 11.9359 13.0836 11.7618 13.1498 11.6552C13.1733 11.6172 13.1731 11.6011 13.173 11.5951C13.1729 11.5859 13.1708 11.5319 13.107 11.4239C12.4593 10.3278 11.1926 9.33329 9.8397 9.33329C8.48678 9.33329 7.22009 10.3278 6.57242 11.4239Z" fill="currentColor"/>
<path fill-rule="evenodd" clip-rule="evenodd" d="M1.92304 5.99996C1.92304 4.61925 3.04232 3.49996 4.42304 3.49996C5.80375 3.49996 6.92304 4.61925 6.92304 5.99996C6.92304 7.38067 5.80375 8.49996 4.42304 8.49996C3.04232 8.49996 1.92304 7.38067 1.92304 5.99996ZM4.42304 5.16663C3.9628 5.16663 3.5897 5.53972 3.5897 5.99996C3.5897 6.4602 3.9628 6.83329 4.42304 6.83329C4.88327 6.83329 5.25637 6.4602 5.25637 5.99996C5.25637 5.53972 4.88327 5.16663 4.42304 5.16663Z" fill="currentColor"/>
<path d="M2.25281 12.2038C2.0482 12.616 1.54813 12.7844 1.13588 12.5797C0.723626 12.3751 0.555307 11.875 0.759925 11.4628C1.06608 10.846 1.52947 10.2267 2.11241 9.75282C2.69557 9.27877 3.44284 8.91663 4.29568 8.91663C4.75592 8.91663 5.12901 9.28972 5.12901 9.74996C5.12901 10.2102 4.75592 10.5833 4.29568 10.5833C3.92819 10.5833 3.54035 10.7399 3.1637 11.0461C2.78683 11.3524 2.46573 11.7748 2.25281 12.2038Z" fill="currentColor"/>
<path fill-rule="evenodd" clip-rule="evenodd" d="M13.0148 5.99996C13.0148 4.61925 14.134 3.49996 15.5148 3.49996C16.8955 3.49996 18.0148 4.61925 18.0148 5.99996C18.0148 7.38067 16.8955 8.49996 15.5148 8.49996C14.134 8.49996 13.0148 7.38067 13.0148 5.99996ZM15.5148 5.16663C15.0545 5.16663 14.6814 5.53972 14.6814 5.99996C14.6814 6.4602 15.0545 6.83329 15.5148 6.83329C15.975 6.83329 16.3481 6.4602 16.3481 5.99996C16.3481 5.53972 15.975 5.16663 15.5148 5.16663Z" fill="currentColor"/>
<path d="M18.9231 11.4628C19.1278 11.875 18.9594 12.3751 18.5472 12.5797C18.1349 12.7844 17.6349 12.616 17.4303 12.2038C17.2173 11.7748 16.8962 11.3524 16.5194 11.0461C16.1427 10.7399 15.7549 10.5833 15.3874 10.5833C14.9272 10.5833 14.5541 10.2102 14.5541 9.74996C14.5541 9.28972 14.9272 8.91663 15.3874 8.91663C16.2402 8.91663 16.9875 9.27877 17.5707 9.75282C18.1536 10.2267 18.617 10.846 18.9231 11.4628Z" fill="currentColor"/>
</svg>
